<?xml version="1.0" encoding="UTF-8"?>
<svg version="1.1" xmlns="http://www.w3.org/2000/svg" width="512" height="512">
<path d="M0 0 C168.96 0 337.92 0 512 0 C512 168.96 512 337.92 512 512 C343.04 512 174.08 512 0 512 C0 343.04 0 174.08 0 0 Z " fill="#4B8267" transform="translate(0,0)"/>
<path d="M0 0 C168.96 0 337.92 0 512 0 C512 168.96 512 337.92 512 512 C343.04 512 174.08 512 0 512 C0 343.04 0 174.08 0 0 Z M228 16 C228 16.66 228 17.32 228 18 C226.89591797 17.98259766 226.89591797 17.98259766 225.76953125 17.96484375 C224.79371094 17.95582031 223.81789062 17.94679688 222.8125 17.9375 C221.84957031 17.92589844 220.88664063 17.91429688 219.89453125 17.90234375 C217.13627449 17.99540235 214.69270851 18.433114 212 19 C209.66698014 19.03824623 207.33288492 19.04574284 205 19 C205 19.66 205 20.32 205 21 C202.69 21 200.38 21 198 21 C198 21.66 198 22.32 198 23 C197.01 23 196.02 23 195 23 C195 23.66 195 24.32 195 25 C190.38 25.33 185.76 25.66 181 26 C181 26.66 181 27.32 181 28 C180.01 28 179.02 28 178 28 C178 28.66 178 29.32 178 30 C173.05 30.495 173.05 30.495 168 31 C168 31.66 168 32.32 168 33 C166.35 33 164.7 33 163 33 C163 33.66 163 34.32 163 35 C160.69 35.33 158.38 35.66 156 36 C156 36.66 156 37.32 156 38 C155.01 38 154.02 38 153 38 C153 38.66 153 39.32 153 40 C150.69 40.33 148.38 40.66 146 41 C146 41.66 146 42.32 146 43 C145.01 43 144.02 43 143 43 C143 43.66 143 44.32 143 45 C140.69 45.33 138.38 45.66 136 46 C136 46.66 136 47.32 136 48 C135.34 48 134.68 48 134 48 C134 48.66 134 49.32 134 50 C133.01 50 132.02 50 131 50 C131 50.66 131 51.32 131 52 C129.35 52.33 127.7 52.66 126 53 C126 53.66 126 54.32 126 55 C125.34 55 124.68 55 124 55 C124 55.66 124 56.32 124 57 C122.35 57.33 120.7 57.66 119 58 C119 58.66 119 59.32 119 60 C118.01 60 117.02 60 116 60 C116 60.66 116 61.32 116 62 C114.68 62.33 113.36 62.66 112 63 C112 63.66 112 64.32 112 65 C111.01 65 110.02 65 109 65 C109 65.66 109 66.32 109 67 C107.68 67.33 106.36 67.66 105 68 C104.67 69.32 104.34 70.64 104 72 C102.35 72.33 100.7 72.66 99 73 C99 73.66 99 74.32 99 75 C98.34 75 97.68 75 97 75 C97 75.66 97 76.32 97 77 C95.515 77.495 95.515 77.495 94 78 C94 78.66 94 79.32 94 80 C93.34 80 92.68 80 92 80 C92 80.66 92 81.32 92 82 C91.34 82 90.68 82 90 82 C88.33333333 83.33333333 88.33333333 83.33333333 87 85 C87 85.66 87 86.32 87 87 C86.34 87 85.68 87 85 87 C83.33333333 88.33333333 83.33333333 88.33333333 82 90 C82 90.66 82 91.32 82 92 C81.34 92 80.68 92 80 92 C80 92.66 80 93.32 80 94 C79.01 94.33 78.02 94.66 77 95 C77 96.32 77 97.64 77 99 C75.68 99 74.36 99 73 99 C72.67 100.65 72.34 102.3 72 104 C71.34 104 70.68 104 70 104 C70 104.66 70 105.32 70 106 C69.01 106.33 68.02 106.66 67 107 C67 108.32 67 109.64 67 111 C65.02 111.495 65.02 111.495 63 112 C62.814375 112.9590625 62.814375 112.9590625 62.625 113.9375 C62.41875 114.618125 62.2125 115.29875 62 116 C61.01 116.495 61.01 116.495 60 117 C60 117.66 60 118.32 60 119 C59.34 119 58.68 119 58 119 C58 119.99 58 120.98 58 122 C57.34 122 56.68 122 56 122 C55.67 123.65 55.34 125.3 55 127 C54.34 127 53.68 127 53 127 C52.67 129.31 52.34 131.62 52 134 C51.34 134 50.68 134 50 134 C50 134.66 50 135.32 50 136 C49.34 136 48.68 136 48 136 C48 136.99 48 137.98 48 139 C47.34 139 46.68 139 46 139 C45.67 141.31 45.34 143.62 45 146 C44.34 146 43.68 146 43 146 C43 146.99 43 147.98 43 149 C42.34 149 41.68 149 41 149 C40.67 151.97 40.34 154.94 40 158 C39.34 158 38.68 158 38 158 C38 158.99 38 159.98 38 161 C37.34 161 36.68 161 36 161 C35.67 163.97 35.34 166.94 35 170 C34.34 170 33.68 170 33 170 C33 170.99 33 171.98 33 173 C32.34 173 31.68 173 31 173 C30.67 176.96 30.34 180.92 30 185 C29.34 185 28.68 185 28 185 C28 186.65 28 188.3 28 190 C27.34 190 26.68 190 26 190 C26 192.31 26 194.62 26 197 C25.34 197 24.68 197 24 197 C23.15976812 201.35332736 22.89229005 205.44442519 22.9375 209.875 C22.94652344 211.02742187 22.95554687 212.17984375 22.96484375 213.3671875 C22.97644531 214.23601562 22.98804688 215.10484375 23 216 C22.34 216 21.68 216 21 216 C21 218.97 21 221.94 21 225 C20.34 225 19.68 225 19 225 C18.97470627 231.94172388 18.95715696 238.88343594 18.94506836 245.82519531 C18.94003041 248.18815556 18.93319992 250.55111268 18.92456055 252.9140625 C18.91247146 256.30469535 18.90676641 259.69528709 18.90234375 263.0859375 C18.89718246 264.14743011 18.89202118 265.20892273 18.88670349 266.30258179 C18.88662796 267.28344757 18.88655243 268.26431335 18.88647461 269.27490234 C18.884254 270.14094086 18.88203339 271.00697937 18.87974548 271.89926147 C18.86446254 274.0583966 18.86446254 274.0583966 20 276 C20.22950319 278.204364 20.41075933 280.41392173 20.5625 282.625 C20.64628906 283.81351562 20.73007812 285.00203125 20.81640625 286.2265625 C20.90728516 287.59941406 20.90728516 287.59941406 21 289 C21.66 289 22.32 289 23 289 C22.98839844 289.65226562 22.97679687 290.30453125 22.96484375 290.9765625 C22.91529006 295.7761914 23.00586249 300.27784685 24 305 C24.66 305 25.32 305 26 305 C26 307.31 26 309.62 26 312 C26.66 312 27.32 312 28 312 C27.979375 313.2375 27.95875 314.475 27.9375 315.75 C27.93233319 318.6640825 28.06984442 321.20953327 29 324 C29.66 324 30.32 324 31 324 C31 325.65 31 327.3 31 329 C31.66 329 32.32 329 33 329 C33 330.65 33 332.3 33 334 C33.66 334 34.32 334 35 334 C35.495 337.96 35.495 337.96 36 342 C36.66 342 37.32 342 38 342 C38 343.32 38 344.64 38 346 C38.66 346 39.32 346 40 346 C40.495 349.96 40.495 349.96 41 354 C41.66 354 42.32 354 43 354 C43 354.66 43 355.32 43 356 C43.66 356 44.32 356 45 356 C45.495 359.96 45.495 359.96 46 364 C46.66 364 47.32 364 48 364 C48 364.66 48 365.32 48 366 C48.66 366 49.32 366 50 366 C50 366.99 50 367.98 50 369 C50.66 369 51.32 369 52 369 C52.495 372.465 52.495 372.465 53 376 C53.66 376 54.32 376 55 376 C55 376.66 55 377.32 55 378 C55.66 378 56.32 378 57 378 C57.33 379.65 57.66 381.3 58 383 C58.66 383 59.32 383 60 383 C60 383.99 60 384.98 60 386 C60.66 386 61.32 386 62 386 C62.33 387.32 62.66 388.64 63 390 C63.66 390 64.32 390 65 390 C65 390.99 65 391.98 65 393 C65.66 393 66.32 393 67 393 C67.495 394.485 67.495 394.485 68 396 C68.66 396 69.32 396 70 396 C70 397.32 70 398.64 70 400 C71.29209912 401.79252059 71.29209912 401.79252059 73 403 C73.66 403 74.32 403 75 403 C75 403.66 75 404.32 75 405 C75.66 405 76.32 405 77 405 C77.33 406.65 77.66 408.3 78 410 C78.66 410 79.32 410 80 410 C80 410.66 80 411.32 80 412 C81.32 412.33 82.64 412.66 84 413 C84.33 414.32 84.66 415.64 85 417 C86.32 417.33 87.64 417.66 89 418 C89.33 419.32 89.66 420.64 90 422 C91.32 422.33 92.64 422.66 94 423 C94.33 424.32 94.66 425.64 95 427 C95.66 427 96.32 427 97 427 C97 427.66 97 428.32 97 429 C98.65 429.33 100.3 429.66 102 430 C102 431.32 102 432.64 102 434 C103.65 434.33 105.3 434.66 107 435 C107 435.66 107 436.32 107 437 C107.66 437 108.32 437 109 437 C109 437.66 109 438.32 109 439 C110.65 439.33 112.3 439.66 114 440 C114 440.66 114 441.32 114 442 C114.66 442 115.32 442 116 442 C116 442.66 116 443.32 116 444 C117.65 444.33 119.3 444.66 121 445 C121 445.66 121 446.32 121 447 C121.99 447 122.98 447 124 447 C124 447.66 124 448.32 124 449 C125.65 449.33 127.3 449.66 129 450 C129 450.66 129 451.32 129 452 C129.66 452 130.32 452 131 452 C131 452.66 131 453.32 131 454 C133.31 454.33 135.62 454.66 138 455 C138 455.66 138 456.32 138 457 C138.99 457 139.98 457 141 457 C141 457.66 141 458.32 141 459 C141.66 459 142.32 459 143 459 C143 459.66 143 460.32 143 461 C144.98 461.33 146.96 461.66 149 462 C149 462.66 149 463.32 149 464 C150.32 464 151.64 464 153 464 C153 464.66 153 465.32 153 466 C155.31 466.33 157.62 466.66 160 467 C160 467.66 160 468.32 160 469 C160.99 469 161.98 469 163 469 C163 469.66 163 470.32 163 471 C166.3 471.33 169.6 471.66 173 472 C173 472.66 173 473.32 173 474 C174.65 474 176.3 474 178 474 C178 474.66 178 475.32 178 476 C181.47325181 477.1577506 184.36067448 477.06866652 188 477 C188 477.66 188 478.32 188 479 C189.98 479 191.96 479 194 479 C194 479.66 194 480.32 194 481 C198.29 481.33 202.58 481.66 207 482 C207 482.66 207 483.32 207 484 C209.64 484 212.28 484 215 484 C215 484.66 215 485.32 215 486 C227.03426872 487.19215705 239.05086485 487.15287908 251.1315918 487.13037109 C254.55847588 487.1250063 257.98522924 487.1303459 261.41210938 487.13671875 C277.23121386 487.14803792 277.23121386 487.14803792 293 486 C293 485.34 293 484.68 293 484 C295.97 484 298.94 484 302 484 C302 483.34 302 482.68 302 482 C303.258125 482.061875 304.51625 482.12375 305.8125 482.1875 C311.50565104 482.21469658 316.6052464 480.69405347 322 479 C322 478.34 322 477.68 322 477 C323.051875 477.020625 324.10375 477.04125 325.1875 477.0625 C328.32704904 477.01103198 330.96883396 476.73482813 334 476 C334 475.34 334 474.68 334 474 C335.65 474 337.3 474 339 474 C339 473.34 339 472.68 339 472 C341.31 471.67 343.62 471.34 346 471 C346 470.34 346 469.68 346 469 C346.99 469 347.98 469 349 469 C349 468.34 349 467.68 349 467 C351.97 466.67 354.94 466.34 358 466 C358 465.34 358 464.68 358 464 C358.99 464 359.98 464 361 464 C361 463.34 361 462.68 361 462 C363.31 461.67 365.62 461.34 368 461 C368 460.34 368 459.68 368 459 C368.99 459 369.98 459 371 459 C371 458.34 371 457.68 371 457 C373.31 456.67 375.62 456.34 378 456 C378.33 454.68 378.66 453.36 379 452 C380.32 452 381.64 452 383 452 C383 451.34 383 450.68 383 450 C384.65 449.67 386.3 449.34 388 449 C388 448.34 388 447.68 388 447 C388.66 447 389.32 447 390 447 C390 446.34 390 445.68 390 445 C391.65 444.67 393.3 444.34 395 444 C395.33 442.68 395.66 441.36 396 440 C397.98 439.67 399.96 439.34 402 439 C402.33 437.68 402.66 436.36 403 435 C404.65 434.67 406.3 434.34 408 434 C408 433.34 408 432.68 408 432 C408.66 432 409.32 432 410 432 C410.33 430.68 410.66 429.36 411 428 C412.32 427.67 413.64 427.34 415 427 C415 426.34 415 425.68 415 425 C415.66 425 416.32 425 417 425 C418.66666667 423.66666667 418.66666667 423.66666667 420 422 C420 421.34 420 420.68 420 420 C420.66 420 421.32 420 422 420 C423.66666667 418.66666667 423.66666667 418.66666667 425 417 C425 416.34 425 415.68 425 415 C425.66 415 426.32 415 427 415 C427.33 413.68 427.66 412.36 428 411 C428.8353125 410.9071875 428.8353125 410.9071875 429.6875 410.8125 C432.99068042 409.6519231 434.71894733 407.59786554 437 405 C437 404.34 437 403.68 437 403 C437.66 403 438.32 403 439 403 C439.33 401.35 439.66 399.7 440 398 C440.66 398 441.32 398 442 398 C442 397.34 442 396.68 442 396 C442.99 395.67 443.98 395.34 445 395 C445 393.68 445 392.36 445 391 C445.66 391 446.32 391 447 391 C447.33 389.35 447.66 387.7 448 386 C448.66 386 449.32 386 450 386 C450 385.34 450 384.68 450 384 C450.66 384 451.32 384 452 384 C452 383.01 452 382.02 452 381 C452.66 381 453.32 381 454 381 C454.33 379.35 454.66 377.7 455 376 C455.66 376 456.32 376 457 376 C457 375.01 457 374.02 457 373 C457.66 373 458.32 373 459 373 C459 372.34 459 371.68 459 371 C459.66 371 460.32 371 461 371 C461.33 368.69 461.66 366.38 462 364 C462.66 364 463.32 364 464 364 C466.03435531 360.27034861 467 358.33094958 467 354 C467.66 354 468.32 354 469 354 C469 353.01 469 352.02 469 351 C469.66 351 470.32 351 471 351 C471.33 348.69 471.66 346.38 472 344 C472.66 344 473.32 344 474 344 C474 342.35 474 340.7 474 339 C474.66 339 475.32 339 476 339 C476.33 335.7 476.66 332.4 477 329 C477.66 329 478.32 329 479 329 C479 328.34 479 327.68 479 327 C479.66 327 480.32 327 481 327 C481.33 322.71 481.66 318.42 482 314 C482.66 314 483.32 314 484 314 C484 311.69 484 309.38 484 307 C484.66 307 485.32 307 486 307 C488.43092956 298.8390222 489.40735653 291.50922528 489 283 C489.66 283 490.32 283 491 283 C491 263.2 491 243.4 491 223 C490.34 223 489.68 223 489 223 C489.01740234 221.62328125 489.01740234 221.62328125 489.03515625 220.21875 C489.08301493 213.70996973 489.02900697 207.43129355 488 201 C487.34 201 486.68 201 486 201 C486 199.02 486 197.04 486 195 C485.34 195 484.68 195 484 195 C484 193.35 484 191.7 484 190 C483.34 190 482.68 190 482 190 C482.020625 188.948125 482.04125 187.89625 482.0625 186.8125 C482.01103198 183.67295096 481.73482813 181.03116604 481 178 C480.34 178 479.68 178 479 178 C479 176.35 479 174.7 479 173 C478.34 173 477.68 173 477 173 C476.67 169.7 476.34 166.4 476 163 C475.34 163 474.68 163 474 163 C474 162.01 474 161.02 474 160 C473.34 160 472.68 160 472 160 C471 156 470 152 469 148 C468.34 148 467.68 148 467 148 C466.67 145.69 466.34 143.38 466 141 C465.34 141 464.68 141 464 141 C464 140.01 464 139.02 464 138 C463.34 138 462.68 138 462 138 C462 137.34 462 136.68 462 136 C461.34 136 460.68 136 460 136 C459.67 133.69 459.34 131.38 459 129 C458.34 129 457.68 129 457 129 C457 128.34 457 127.68 457 127 C456.34 127 455.68 127 455 127 C454.67 125.02 454.34 123.04 454 121 C453.34 121 452.68 121 452 121 C452 120.34 452 119.68 452 119 C451.34 119 450.68 119 450 119 C449.67 117.35 449.34 115.7 449 114 C448.34 114 447.68 114 447 114 C447 113.34 447 112.68 447 112 C446.34 111.67 445.68 111.34 445 111 C444.375 108.9375 444.375 108.9375 444 107 C443.34 107 442.68 107 442 107 C442 106.34 442 105.68 442 105 C440.68 104.67 439.36 104.34 438 104 C437.67 102.35 437.34 100.7 437 99 C436.34 99 435.68 99 435 99 C435 98.34 435 97.68 435 97 C434.34 97 433.68 97 433 97 C432.67 96.01 432.34 95.02 432 94 C431.34 94 430.68 94 430 94 C430 93.34 430 92.68 430 92 C429.34 92 428.68 92 428 92 C427.67 91.01 427.34 90.02 427 89 C426.34 89 425.68 89 425 89 C425 88.34 425 87.68 425 87 C423.66666667 85.33333333 423.66666667 85.33333333 422 84 C421.34 84 420.68 84 420 84 C420 83.34 420 82.68 420 82 C417.66666667 79.33333333 417.66666667 79.33333333 415 77 C414.34 77 413.68 77 413 77 C413 76.34 413 75.68 413 75 C411.66666667 73.33333333 411.66666667 73.33333333 410 72 C409.34 72 408.68 72 408 72 C408 71.34 408 70.68 408 70 C407.01 70 406.02 70 405 70 C405 69.34 405 68.68 405 68 C403.68 67.67 402.36 67.34 401 67 C400.67 65.68 400.34 64.36 400 63 C398.35 62.67 396.7 62.34 395 62 C395 61.34 395 60.68 395 60 C394.34 60 393.68 60 393 60 C393 59.34 393 58.68 393 58 C391.35 57.67 389.7 57.34 388 57 C388 56.34 388 55.68 388 55 C387.01 55 386.02 55 385 55 C385 54.34 385 53.68 385 53 C383.02 52.67 381.04 52.34 379 52 C378.67 50.68 378.34 49.36 378 48 C375.69 47.67 373.38 47.34 371 47 C371 46.34 371 45.68 371 45 C370.01 45 369.02 45 368 45 C368 44.34 368 43.68 368 43 C367.34 43 366.68 43 366 43 C366 42.34 366 41.68 366 41 C362.04 40.505 362.04 40.505 358 40 C358 39.34 358 38.68 358 38 C356.68 38 355.36 38 354 38 C354 37.34 354 36.68 354 36 C352.02 35.67 350.04 35.34 348 35 C348 34.34 348 33.68 348 33 C346.68 33 345.36 33 344 33 C344 32.34 344 31.68 344 31 C340.7 30.67 337.4 30.34 334 30 C334 29.34 334 28.68 334 28 C332.68 28 331.36 28 330 28 C330 27.34 330 26.68 330 26 C328.02 26 326.04 26 324 26 C324 25.34 324 24.68 324 24 C319.32798795 22.79431947 314.78503708 22.90617574 310 23 C310 22.34 310 21.68 310 21 C308.35 21 306.7 21 305 21 C305 20.34 305 19.68 305 19 C297.66236293 17.82597807 290.41834582 17.90622877 283 18 C283 17.34 283 16.68 283 16 C264.85 16 246.7 16 228 16 Z " fill="#FEFEFE" transform="translate(0,0)"/>
<path d="M0 0 C4 7.625 4 7.625 4 11 C4.66 11 5.32 11 6 11 C6.84324672 12.578076 7.67423918 14.1627042 8.5 15.75 C8.9640625 16.63171875 9.428125 17.5134375 9.90625 18.421875 C11 21 11 21 11 25 C11.66 25 12.32 25 13 25 C19 36.73786408 19 36.73786408 19 41 C19.66 41 20.32 41 21 41 C21.83819158 42.62249941 22.6704116 44.24808497 23.5 45.875 C24.19609375 47.23238281 24.19609375 47.23238281 24.90625 48.6171875 C26 51 26 51 26 53 C29.24732932 51.37633534 29.70155136 48.24612161 31 45 C31.66 45 32.32 45 33 45 C33.04125 44.195625 33.0825 43.39125 33.125 42.5625 C34.15895259 38.35283587 36.0548164 35.79195956 38.51953125 32.28515625 C40.23022888 29.64463352 41.21642629 27.0944668 42.2109375 24.12890625 C43.76998682 19.92256031 45.93777587 15.97772875 48 12 C48.66 12 49.32 12 50 12 C50.0825 11.13375 50.165 10.2675 50.25 9.375 C51.20095592 5.09569834 51.7866264 3.06731117 55 0 C59.37450755 -0.51974347 63.61566352 -0.3421303 68 0 C67.58164712 6.0661168 66.55517969 8.96349545 63 14 C60.74463874 18.5633257 58.61046545 23.16860366 57 28 C56.34 28 55.68 28 55 28 C54.87625 28.53625 54.7525 29.0725 54.625 29.625 C53.87793984 32.4638286 52.94696636 35.22223202 52 38 C51.34 38 50.68 38 50 38 C49.7628125 38.9796875 49.525625 39.959375 49.28125 40.96875 C47.76284221 46.28317725 44.96274209 50.88762675 42.27734375 55.68359375 C39.87026703 60.07670737 38.18004108 64.12591726 37 69 C36.34 69 35.68 69 35 69 C35 69.99 35 70.98 35 72 C32.68756208 72.02685412 30.3750373 72.04632841 28.0625 72.0625 C26.77472656 72.07410156 25.48695313 72.08570313 24.16015625 72.09765625 C21 72 21 72 20 71 C19.95936168 69.33382885 19.957279 67.66611905 20 66 C19.34 66 18.68 66 18 66 C15.96564469 62.27034861 15 60.33094958 15 56 C14.34 56 13.68 56 13 56 C10.96564469 52.27034861 10 50.33094958 10 46 C9.34 46 8.68 46 8 46 C5.96564469 42.27034861 5 40.33094958 5 36 C4.34 36 3.68 36 3 36 C-0.9731558 32.15928273 -2.37357187 27.64170468 -4.0703125 22.5234375 C-4.95912199 19.80905758 -4.95912199 19.80905758 -7 17 C-26.305 16.505 -26.305 16.505 -46 16 C-46 69.46 -46 122.92 -46 178 C-56.56 178 -67.12 178 -78 178 C-78 119.92 -78 61.84 -78 2 C-75.34245552 0.67122776 -73.27988055 0.83853854 -70.30371094 0.79467773 C-68.50978912 0.7647599 -68.50978912 0.7647599 -66.67962646 0.73423767 C-65.37769348 0.71752518 -64.0757605 0.70081268 -62.734375 0.68359375 C-61.38071095 0.66299385 -60.0270529 0.64199664 -58.67340088 0.62062073 C-55.82527007 0.57660845 -52.97711818 0.53571537 -50.12890625 0.49731445 C-46.51840543 0.44863535 -42.90800252 0.39502531 -39.29760361 0.33933926 C-35.81821757 0.28581824 -32.33880007 0.23450592 -28.859375 0.18359375 C-27.58173279 0.16485703 -26.30409058 0.1461203 -24.98773193 0.1268158 C-16.65758986 0.01343312 -8.33084837 -0.02116893 0 0 Z " fill="#F8F9F8" transform="translate(250,157)"/>
<path d="M0 0 C0.33 0.66 0.66 1.32 1 2 C0.67 2.99 0.34 3.98 0 5 C-0.66 5 -1.32 5 -2 5 C-2.33 6.65 -2.66 8.3 -3 10 C-3.66 10 -4.32 10 -5 10 C-5 10.66 -5 11.32 -5 12 C-5.66 12 -6.32 12 -7 12 C-7.33 13.65 -7.66 15.3 -8 17 C-8.66 17 -9.32 17 -10 17 C-10 17.66 -10 18.32 -10 19 C-11.4609375 20.5078125 -11.4609375 20.5078125 -13.375 22.125 C-14.00148438 22.66382813 -14.62796875 23.20265625 -15.2734375 23.7578125 C-17 25 -17 25 -19 25 C-19.33 26.32 -19.66 27.64 -20 29 C-20.66 29 -21.32 29 -22 29 C-22 29.66 -22 30.32 -22 31 C-23.375 32.625 -23.375 32.625 -25 34 C-25.66 34 -26.32 34 -27 34 C-27 34.66 -27 35.32 -27 36 C-28.375 37.625 -28.375 37.625 -30 39 C-30.66 39 -31.32 39 -32 39 C-32 39.66 -32 40.32 -32 41 C-33.32 41.33 -34.64 41.66 -36 42 C-36.33 43.32 -36.66 44.64 -37 46 C-37.66 46 -38.32 46 -39 46 C-39 46.66 -39 47.32 -39 48 C-40.65 48.33 -42.3 48.66 -44 49 C-44.33 50.32 -44.66 51.64 -45 53 C-46.98 53.33 -48.96 53.66 -51 54 C-51.33 55.32 -51.66 56.64 -52 58 C-54.475 58.495 -54.475 58.495 -57 59 C-57 59.66 -57 60.32 -57 61 C-57.66 61 -58.32 61 -59 61 C-59 61.66 -59 62.32 -59 63 C-61.475 63.495 -61.475 63.495 -64 64 C-64 64.66 -64 65.32 -64 66 C-65.32 66 -66.64 66 -68 66 C-68.33 67.32 -68.66 68.64 -69 70 C-72.465 70.495 -72.465 70.495 -76 71 C-76 71.66 -76 72.32 -76 73 C-76.99 73 -77.98 73 -79 73 C-79 73.66 -79 74.32 -79 75 C-82.465 75.495 -82.465 75.495 -86 76 C-86 76.66 -86 77.32 -86 78 C-86.99 78 -87.98 78 -89 78 C-89 78.66 -89 79.32 -89 80 C-93.455 80.495 -93.455 80.495 -98 81 C-98 81.66 -98 82.32 -98 83 C-98.99 83 -99.98 83 -101 83 C-101 83.66 -101 84.32 -101 85 C-104.465 85.495 -104.465 85.495 -108 86 C-108 86.66 -108 87.32 -108 88 C-109.65 88 -111.3 88 -113 88 C-113 88.66 -113 89.32 -113 90 C-117.0527516 90.98248524 -120.83861737 91.08159574 -125 91 C-125 91.66 -125 92.32 -125 93 C-131.87581298 95.1591338 -137.78528371 96.35482211 -145 96 C-145 96.66 -145 97.32 -145 98 C-147.97 98 -150.94 98 -154 98 C-154 98.66 -154 99.32 -154 100 C-165.64310782 101.28023152 -177.30399954 101.15212403 -189.0012207 101.13037109 C-192.42598916 101.12501799 -195.85062619 101.13033796 -199.27539062 101.13671875 C-210.22563187 101.13970222 -221.09296453 101.08048935 -232 100 C-232 99.34 -232 98.68 -232 98 C-234.64 98 -237.28 98 -240 98 C-240 97.34 -240 96.68 -240 96 C-244.29 95.67 -248.58 95.34 -253 95 C-253 94.34 -253 93.68 -253 93 C-254.98 93 -256.96 93 -259 93 C-259 92.34 -259 91.68 -259 91 C-260.093125 91.020625 -261.18625 91.04125 -262.3125 91.0625 C-266 91 -266 91 -269 90 C-269 89.34 -269 88.68 -269 88 C-270.65 88 -272.3 88 -274 88 C-274 87.34 -274 86.68 -274 86 C-277.3 85.67 -280.6 85.34 -284 85 C-284 84.34 -284 83.68 -284 83 C-284.99 83 -285.98 83 -287 83 C-287 82.34 -287 81.68 -287 81 C-290.465 80.505 -290.465 80.505 -294 80 C-294 79.34 -294 78.68 -294 78 C-295.32 78 -296.64 78 -298 78 C-298 77.34 -298 76.68 -298 76 C-299.98 75.67 -301.96 75.34 -304 75 C-304 74.34 -304 73.68 -304 73 C-304.66 73 -305.32 73 -306 73 C-306 72.34 -306 71.68 -306 71 C-306.99 71 -307.98 71 -309 71 C-309 70.34 -309 69.68 -309 69 C-307.68 69.33 -306.36 69.66 -305 70 C-305 70.66 -305 71.32 -305 72 C-304.0925 72.12375 -303.185 72.2475 -302.25 72.375 C-299.41029677 72.92109677 -297.47409409 73.57263803 -295 75 C-295 75.66 -295 76.32 -295 77 C-294.12859375 77.11730469 -293.2571875 77.23460937 -292.359375 77.35546875 C-289.03637094 77.99302186 -286.34366248 78.96215813 -283.25 80.3125 C-282.20457031 80.75980469 -281.15914062 81.20710938 -280.08203125 81.66796875 C-279.06496094 82.10753906 -278.04789063 82.54710937 -277 83 C-270.94505036 85.57946285 -264.98042644 87.63190333 -258.60546875 89.27734375 C-256.22666092 89.93713303 -253.98206952 90.72028402 -251.6875 91.625 C-248.34498539 92.87136138 -245.52066166 93.55991729 -242 94 C-240.93652344 94.13728516 -240.93652344 94.13728516 -239.8515625 94.27734375 C-237.90214564 94.52700591 -235.95117992 94.76451277 -234 95 C-234 95.66 -234 96.32 -234 97 C-233.35675781 96.98839844 -232.71351563 96.97679687 -232.05078125 96.96484375 C-213.6565097 96.78116343 -213.6565097 96.78116343 -207 99 C-204.8336824 99.09548011 -202.66451347 99.13073533 -200.49609375 99.1328125 C-199.19736328 99.13410156 -197.89863281 99.13539063 -196.56054688 99.13671875 C-195.88241943 99.13462402 -195.20429199 99.1325293 -194.50561523 99.13037109 C-192.46916019 99.12508222 -190.432932 99.13028916 -188.39648438 99.13671875 C-181.87712352 99.13029257 -175.4674221 99.0085203 -168.99267578 98.21435547 C-166.32764395 97.92767353 -163.67760708 98 -161 98 C-160.67 97.67 -160.34 97.34 -160 97 C-157.42102306 96.67762788 -154.84068179 96.48732696 -152.25 96.28125 C-150.03334648 96.23799335 -150.03334648 96.23799335 -149 95 C-146.62502031 94.67425466 -144.25681167 94.38933196 -141.875 94.125 C-136.3799978 93.46143315 -131.97888559 92.38986508 -127 90 C-125.58974839 89.67874577 -124.17200009 89.38944212 -122.75 89.125 C-118.03471004 88.16908943 -113.98125904 86.2932991 -109.6484375 84.2421875 C-104.76680833 81.95257382 -100.47370999 80 -95 80 C-95 79.34 -95 78.68 -95 78 C-94.03900391 77.63648438 -94.03900391 77.63648438 -93.05859375 77.265625 C-88.89735532 75.65322263 -84.89453648 74.05251119 -81.0625 71.75 C-78 70 -78 70 -75 70 C-75 69.34 -75 68.68 -75 68 C-73.83210937 67.44828125 -72.66421875 66.8965625 -71.4609375 66.328125 C-67.1840951 64.18688142 -63.43521015 61.62518307 -59.625 58.75 C-58.98087158 58.27199951 -58.33674316 57.79399902 -57.6730957 57.30151367 C-52.96094523 53.78429077 -48.36747614 50.13462411 -43.85546875 46.36328125 C-42 45 -42 45 -40 45 C-40 44.34 -40 43.68 -40 43 C-38.3125 41.5546875 -38.3125 41.5546875 -36 39.875 C-28.38929275 34.0984851 -22.41743486 27.51628833 -16.6640625 19.90625 C-15.84035156 18.96265625 -15.84035156 18.96265625 -15 18 C-14.34 18 -13.68 18 -13 18 C-13 17.34 -13 16.68 -13 16 C-12.34 16 -11.68 16 -11 16 C-10.62875 15.195625 -10.62875 15.195625 -10.25 14.375 C-8.69347463 11.4176018 -6.96564327 8.70275949 -5 6 C-4.34 6 -3.68 6 -3 6 C-3 5.01 -3 4.02 -3 3 C-2.34 3 -1.68 3 -1 3 C-0.67 2.01 -0.34 1.02 0 0 Z " fill="#85C8B7" transform="translate(447,386)"/>
<path d="M0 0 C3.59318494 1.81134282 6.32303092 4.02584464 7.65234375 7.90234375 C8.58453029 13.52688498 8.96172632 18.95850172 6.125 24.0625 C4 27 4 27 2 28 C-0.62242356 28.2037399 -3.18709203 28.32356725 -5.8125 28.375 C-6.52470703 28.41238281 -7.23691406 28.44976562 -7.97070312 28.48828125 C-12.00847705 28.55551523 -13.74048742 28.21299618 -16.8984375 25.62109375 C-20.5668824 21.04576564 -22.59133637 18.12378007 -22.359375 12 C-21.76134288 8.67182126 -20.15916955 6.5293129 -18 4 C-17.01 3.67 -16.02 3.34 -15 3 C-15 2.34 -15 1.68 -15 1 C-10.52976086 -1.23511957 -4.8378715 -0.61551992 0 0 Z " fill="#F8F9F8" transform="translate(195,113)"/>
<path d="M0 0 C0.495 0.99 0.495 0.99 1 2 C0.67 2.99 0.34 3.98 0 5 C-0.66 5 -1.32 5 -2 5 C-2.33 6.65 -2.66 8.3 -3 10 C-3.66 10 -4.32 10 -5 10 C-5 10.66 -5 11.32 -5 12 C-5.66 12 -6.32 12 -7 12 C-7.33 13.65 -7.66 15.3 -8 17 C-8.66 17 -9.32 17 -10 17 C-10 17.66 -10 18.32 -10 19 C-11.4609375 20.5078125 -11.4609375 20.5078125 -13.375 22.125 C-14.00148438 22.66382813 -14.62796875 23.20265625 -15.2734375 23.7578125 C-17 25 -17 25 -19 25 C-19.33 26.32 -19.66 27.64 -20 29 C-20.66 29 -21.32 29 -22 29 C-22 29.66 -22 30.32 -22 31 C-23.375 32.625 -23.375 32.625 -25 34 C-25.66 34 -26.32 34 -27 34 C-27 34.66 -27 35.32 -27 36 C-28.375 37.625 -28.375 37.625 -30 39 C-30.66 39 -31.32 39 -32 39 C-32 39.66 -32 40.32 -32 41 C-33.98 41.495 -33.98 41.495 -36 42 C-36.33 43.32 -36.66 44.64 -37 46 C-37.66 46 -38.32 46 -39 46 C-39 46.66 -39 47.32 -39 48 C-41.475 48.495 -41.475 48.495 -44 49 C-44.33 50.32 -44.66 51.64 -45 53 C-47.97 53.495 -47.97 53.495 -51 54 C-51.33 55.32 -51.66 56.64 -52 58 C-54.475 58.495 -54.475 58.495 -57 59 C-57 59.66 -57 60.32 -57 61 C-57.66 61 -58.32 61 -59 61 C-59 61.66 -59 62.32 -59 63 C-61.475 63.495 -61.475 63.495 -64 64 C-64 64.66 -64 65.32 -64 66 C-65.32 66 -66.64 66 -68 66 C-68.33 67.32 -68.66 68.64 -69 70 C-72.465 70.495 -72.465 70.495 -76 71 C-76 71.66 -76 72.32 -76 73 C-76.99 73 -77.98 73 -79 73 C-79 73.66 -79 74.32 -79 75 C-82.465 75.495 -82.465 75.495 -86 76 C-86 76.66 -86 77.32 -86 78 C-86.99 78 -87.98 78 -89 78 C-89 78.66 -89 79.32 -89 80 C-91.97 80.495 -91.97 80.495 -95 81 C-95 80.01 -95 79.02 -95 78 C-94.35933594 77.75765625 -93.71867187 77.5153125 -93.05859375 77.265625 C-88.89735532 75.65322263 -84.89453648 74.05251119 -81.0625 71.75 C-78 70 -78 70 -75 70 C-75 69.34 -75 68.68 -75 68 C-73.83210938 67.44828125 -72.66421875 66.8965625 -71.4609375 66.328125 C-67.1840951 64.18688142 -63.43521015 61.62518307 -59.625 58.75 C-58.98087158 58.27199951 -58.33674316 57.79399902 -57.6730957 57.30151367 C-52.96094523 53.78429077 -48.36747614 50.13462411 -43.85546875 46.36328125 C-42 45 -42 45 -40 45 C-40 44.34 -40 43.68 -40 43 C-38.3125 41.5546875 -38.3125 41.5546875 -36 39.875 C-28.38929275 34.0984851 -22.41743486 27.51628833 -16.6640625 19.90625 C-16.11492187 19.2771875 -15.56578125 18.648125 -15 18 C-14.34 18 -13.68 18 -13 18 C-13 17.34 -13 16.68 -13 16 C-12.34 16 -11.68 16 -11 16 C-10.62875 15.195625 -10.62875 15.195625 -10.25 14.375 C-8.69347463 11.4176018 -6.96564327 8.70275949 -5 6 C-4.34 6 -3.68 6 -3 6 C-3 5.01 -3 4.02 -3 3 C-2.34 3 -1.68 3 -1 3 C-0.67 2.01 -0.34 1.02 0 0 Z " fill="#98CDBF" transform="translate(447,386)"/>
<path d="M0 0 C1.65 0 3.3 0 5 0 C5.48210937 0.92683594 5.96421875 1.85367187 6.4609375 2.80859375 C7.0986582 4.01838743 7.73669548 5.22801426 8.375 6.4375 C8.69210937 7.04916016 9.00921875 7.66082031 9.3359375 8.29101562 C11.02304299 11.75238344 11.02304299 11.75238344 14 14 C14 15.98 14 17.96 14 20 C12.00045254 20.04254356 9.99958364 20.04080783 8 20 C7.67 19.67 7.34 19.34 7 19 C5.31816052 18.76712992 3.6287584 18.58735834 1.9375 18.4375 C1.01839844 18.35371094 0.09929687 18.26992188 -0.84765625 18.18359375 C-1.91306641 18.09271484 -1.91306641 18.09271484 -3 18 C-3 18.66 -3 19.32 -3 20 C-4.98 20 -6.96 20 -9 20 C-8.67 17.36 -8.34 14.72 -8 12 C-7.34 12 -6.68 12 -6 12 C-5.67 11.01 -5.34 10.02 -5 9 C-4.34 9 -3.68 9 -3 9 C-2.67 7.02 -2.34 5.04 -2 3 C-1.34 3 -0.68 3 0 3 C0 2.01 0 1.02 0 0 Z " fill="#E2EBE7" transform="translate(263,284)"/>
<path d="M0 0 C5.61 0 11.22 0 17 0 C17 1.32 17 2.64 17 4 C13.04 4 9.08 4 5 4 C5 4.99 5 5.98 5 7 C8.3 7 11.6 7 15 7 C15.33 8.32 15.66 9.64 16 11 C15 12 15 12 12.93359375 12.09765625 C12.10988281 12.08605469 11.28617187 12.07445312 10.4375 12.0625 C9.61121094 12.05347656 8.78492188 12.04445313 7.93359375 12.03515625 C7.29550781 12.02355469 6.65742188 12.01195312 6 12 C6 12.99 6 13.98 6 15 C10.29 15 14.58 15 19 15 C18.67 16.65 18.34 18.3 18 20 C12.06 20 6.12 20 0 20 C0 13.4 0 6.8 0 0 Z " fill="#C3D5CD" transform="translate(286,254)"/>
<path d="M0 0 C2.75698837 1.37849419 3.54096417 3.52673053 4.98046875 6.15234375 C5.85347969 7.73446703 6.79535656 9.27825162 7.75 10.8125 C9 13 9 13 9 15 C9.66 15 10.32 15 11 15 C12.61893719 17.11545139 14.13213986 19.23554533 15.625 21.4375 C19.3000683 26.74757671 23.1410528 31.63841915 27.6015625 36.328125 C29 38 29 38 29 40 C29.66 40 30.32 40 31 40 C32.625 41.375 32.625 41.375 34 43 C34 43.66 34 44.32 34 45 C34.66 45 35.32 45 36 45 C37.62109375 46.6796875 37.62109375 46.6796875 39.4375 48.875 C41.58400884 51.46193722 43.16776562 53.11184374 46 55 C46 55.66 46 56.32 46 57 C46.99 57.33 47.98 57.66 49 58 C49 58.66 49 59.32 49 60 C49.57363281 60.26296875 50.14726563 60.5259375 50.73828125 60.796875 C53.13727899 62.07302578 55.07597361 63.54231746 57.1875 65.25 C61.08984886 68.35502509 65.11840111 71.09951522 69.34765625 73.73828125 C70.16556641 74.36283203 70.16556641 74.36283203 71 75 C71 75.66 71 76.32 71 77 C71.5878125 77.11472656 72.175625 77.22945313 72.78125 77.34765625 C75.15033552 78.04420076 76.55026956 78.94418373 78.5 80.4375 C80.91771753 82.23648982 83.22718762 83.77996255 86 85 C82.98968256 85.93423645 82.13349732 86.04449911 79 85 C79 84.34 79 83.68 79 83 C78.34 83 77.68 83 77 83 C77 82.34 77 81.68 77 81 C75.35 80.67 73.7 80.34 72 80 C72 79.34 72 78.68 72 78 C71.01 78 70.02 78 69 78 C69 77.34 69 76.68 69 76 C67.35 75.67 65.7 75.34 64 75 C64 74.34 64 73.68 64 73 C63.34 73 62.68 73 62 73 C62 72.34 62 71.68 62 71 C60.35 70.67 58.7 70.34 57 70 C57 69.34 57 68.68 57 68 C56.34 68 55.68 68 55 68 C55 67.34 55 66.68 55 66 C53.35 65.67 51.7 65.34 50 65 C50 63.68 50 62.36 50 61 C48.35 60.67 46.7 60.34 45 60 C45 59.34 45 58.68 45 58 C44.34 58 43.68 58 43 58 C42.505 56.02 42.505 56.02 42 54 C40.68 53.67 39.36 53.34 38 53 C37.505 51.02 37.505 51.02 37 49 C35.68 48.67 34.36 48.34 33 48 C32.505 46.02 32.505 46.02 32 44 C30.68 43.67 29.36 43.34 28 43 C28 42.34 28 41.68 28 41 C27.34 41 26.68 41 26 41 C25.505 38.525 25.505 38.525 25 36 C24.34 36 23.68 36 23 36 C23 35.34 23 34.68 23 34 C22.34 34 21.68 34 21 34 C19.375 32.75 19.375 32.75 18 31 C18 29.68 18 28.36 18 27 C17.01 26.67 16.02 26.34 15 26 C15 25.34 15 24.68 15 24 C14.34 24 13.68 24 13 24 C13 23.01 13 22.02 13 21 C12.34 21 11.68 21 11 21 C10.67 19.68 10.34 18.36 10 17 C9.34 17 8.68 17 8 17 C8 16.01 8 15.02 8 14 C7.34 14 6.68 14 6 14 C5.67 12.35 5.34 10.7 5 9 C4.34 9 3.68 9 3 9 C3 8.34 3 7.68 3 7 C2.34 7 1.68 7 1 7 C0.67 4.69 0.34 2.38 0 0 Z " fill="#90C3B3" transform="translate(52,369)"/>
<path d="M0 0 C1.26714844 -0.02578125 2.53429687 -0.0515625 3.83984375 -0.078125 C5.43505859 0.08429688 5.43505859 0.08429688 7.0625 0.25 C9.3104982 3.62199729 9.20402102 3.90827639 8.5 7.625 C8.01151024 11.03887731 7.92808201 11.97531976 9.5 15.1875 C10.015625 15.868125 10.53125 16.54875 11.0625 17.25 C11.0625 17.91 11.0625 18.57 11.0625 19.25 C9.0825 19.25 7.1025 19.25 5.0625 19.25 C3.6018715 16.60261084 3.0625 15.35551666 3.0625 12.25 C0.7525 12.25 -1.5575 12.25 -3.9375 12.25 C-3.9375 14.56 -3.9375 16.87 -3.9375 19.25 C-5.2575 18.92 -6.5775 18.59 -7.9375 18.25 C-7.96434312 15.43743719 -7.98426188 12.62512759 -8 9.8125 C-8.00837891 9.01005859 -8.01675781 8.20761719 -8.02539062 7.38085938 C-8.0340143 5.33704779 -7.9897815 3.29316098 -7.9375 1.25 C-5.99826948 -0.68923052 -2.57210405 0.03133528 0 0 Z " fill="#DAE5E0" transform="translate(318.9375,253.75)"/>
<path d="M0 0 C5 0 5 0 6.9140625 1.6796875 C7.76097656 2.76636719 7.76097656 2.76636719 8.625 3.875 C10.72324406 6.52391444 12.14208682 8.09472455 15 10 C15 6.7 15 3.4 15 0 C16.65 0 18.3 0 20 0 C20 6.27 20 12.54 20 19 C18.02 19 16.04 19 14 19 C12.42578125 17.3203125 12.42578125 17.3203125 11.3125 15.125 C9.672875 11.98097681 9.08210373 11.05473582 6 9 C5.67 12.3 5.34 15.6 5 19 C3.35 19 1.7 19 0 19 C0 12.73 0 6.46 0 0 Z " fill="#C9D9D1" transform="translate(337,254)"/>
<path d="M0 0 C5.08335846 0 6.04179024 0.30831594 9.640625 3.5546875 C11.48012678 5.51047962 12.77579165 7.61959488 14 10 C14.33 6.7 14.66 3.4 15 0 C16.65 0 18.3 0 20 0 C20 6.27 20 12.54 20 19 C14.34258142 17.86851628 14.34258142 17.86851628 11.6875 15.0625 C11.17574219 14.53785156 10.66398438 14.01320313 10.13671875 13.47265625 C9 12 9 12 9 10 C8.34 10 7.68 10 7 10 C6.01 9.01 5.02 8.02 4 7 C4 10.96 4 14.92 4 19 C2.68 19 1.36 19 0 19 C0 12.73 0 6.46 0 0 Z " fill="#C8D8D0" transform="translate(232,254)"/>
<path d="M0 0 C1.32 0.33 2.64 0.66 4 1 C4 1.66 4 2.32 4 3 C4.9075 3.12375 5.815 3.2475 6.75 3.375 C9.58970323 3.92109677 11.52590591 4.57263803 14 6 C14 6.66 14 7.32 14 8 C14.87140625 8.11730469 15.7428125 8.23460937 16.640625 8.35546875 C19.96362906 8.99302186 22.65633752 9.96215813 25.75 11.3125 C26.79542969 11.75980469 27.84085938 12.20710938 28.91796875 12.66796875 C29.93503906 13.10753906 30.95210937 13.54710937 32 14 C38.05494964 16.57946285 44.01957356 18.63190333 50.39453125 20.27734375 C52.77333908 20.93713303 55.01793048 21.72028402 57.3125 22.625 C60.65501461 23.87136138 63.47933834 24.55991729 67 25 C67.70898438 25.09152344 68.41796875 25.18304688 69.1484375 25.27734375 C71.09785436 25.52700591 73.04882008 25.76451277 75 26 C75 26.66 75 27.32 75 28 C75.63808594 27.98839844 76.27617187 27.97679687 76.93359375 27.96484375 C77.75988281 27.95582031 78.58617187 27.94679688 79.4375 27.9375 C80.26121094 27.92589844 81.08492188 27.91429687 81.93359375 27.90234375 C84 28 84 28 85 29 C87.34723966 29.397493 89.70328548 29.74368723 92.0625 30.0625 C93.35285156 30.23910156 94.64320313 30.41570312 95.97265625 30.59765625 C96.97167969 30.73042969 97.97070312 30.86320312 99 31 C99 31.33 99 31.66 99 32 C88.11 31.505 88.11 31.505 77 31 C77 30.34 77 29.68 77 29 C74.36 29 71.72 29 69 29 C69 28.34 69 27.68 69 27 C64.71 26.67 60.42 26.34 56 26 C56 25.34 56 24.68 56 24 C54.02 24 52.04 24 50 24 C50 23.34 50 22.68 50 22 C48.906875 22.020625 47.81375 22.04125 46.6875 22.0625 C43 22 43 22 40 21 C40 20.34 40 19.68 40 19 C38.35 19 36.7 19 35 19 C35 18.34 35 17.68 35 17 C31.7 16.67 28.4 16.34 25 16 C25 15.34 25 14.68 25 14 C24.01 14 23.02 14 22 14 C22 13.34 22 12.68 22 12 C19.69 11.67 17.38 11.34 15 11 C15 10.34 15 9.68 15 9 C13.68 9 12.36 9 11 9 C11 8.34 11 7.68 11 7 C8.03 6.505 8.03 6.505 5 6 C5 5.34 5 4.68 5 4 C4.34 4 3.68 4 3 4 C3 3.34 3 2.68 3 2 C2.01 2 1.02 2 0 2 C0 1.34 0 0.68 0 0 Z " fill="#9DD2C5" transform="translate(138,455)"/>
<path d="M0 0 C0.66 0 1.32 0 2 0 C1.54775239 5.91492272 0.8417395 11.35199888 -1 17 C-1.66 17 -2.32 17 -3 17 C-3 19.31 -3 21.62 -3 24 C-3.66 24 -4.32 24 -5 24 C-5.33 28.29 -5.66 32.58 -6 37 C-6.66 37 -7.32 37 -8 37 C-8 37.66 -8 38.32 -8 39 C-8.66 39 -9.32 39 -10 39 C-10.33 42.3 -10.66 45.6 -11 49 C-11.66 49 -12.32 49 -13 49 C-13 50.65 -13 52.3 -13 54 C-13.66 54 -14.32 54 -15 54 C-15.33 56.31 -15.66 58.62 -16 61 C-16.66 61 -17.32 61 -18 61 C-18 61.99 -18 62.98 -18 64 C-18.66 64 -19.32 64 -20 64 C-20.12375 64.721875 -20.2475 65.44375 -20.375 66.1875 C-20.9904931 68.95721894 -21.88444374 71.3970354 -23 74 C-23.66 74 -24.32 74 -25 74 C-25.33 76.31 -25.66 78.62 -26 81 C-26.66 81 -27.32 81 -28 81 C-28 81.66 -28 82.32 -28 83 C-28.66 83 -29.32 83 -30 83 C-30 83.99 -30 84.98 -30 86 C-30.66 86 -31.32 86 -32 86 C-32.33 87.65 -32.66 89.3 -33 91 C-33.66 91 -34.32 91 -35 91 C-35 91.99 -35 92.98 -35 94 C-35.66 94 -36.32 94 -37 94 C-37 94.66 -37 95.32 -37 96 C-37.66 96 -38.32 96 -39 96 C-38.67 94.68 -38.34 93.36 -38 92 C-37.34 92 -36.68 92 -36 92 C-35.8865625 91.42765625 -35.773125 90.8553125 -35.65625 90.265625 C-34.92885479 87.75437964 -33.89219514 85.9620434 -32.5 83.75 C-26.22935855 73.51098159 -20.09309755 63.32423654 -16 52 C-15.35746381 50.43614125 -14.71150361 48.87368585 -14.0625 47.3125 C-10.67752957 38.83664151 -7.2653629 30.06611662 -6 21 C-5.34 21 -4.68 21 -4 21 C-4.020625 20.195625 -4.04125 19.39125 -4.0625 18.5625 C-4 16 -4 16 -3 15 C-2.835 13.845 -2.67 12.69 -2.5 11.5 C-2 8 -2 8 -1 7 C-0.63239269 4.67182036 -0.29758419 2.3381615 0 0 Z " fill="#79AD9A" transform="translate(487,290)"/>
<path d="M0 0 C4.95 0 9.9 0 15 0 C13.87824897 6.73050616 13.87824897 6.73050616 10 9.75 C7.03179769 11.99181561 7.03179769 11.99181561 5 15 C8.3 15 11.6 15 15 15 C15 16.32 15 17.64 15 19 C9.39 19 3.78 19 -2 19 C-1.67 17.02 -1.34 15.04 -1 13 C-0.34 13 0.32 13 1 13 C1.268125 12.4225 1.53625 11.845 1.8125 11.25 C3.01719859 8.9674132 4.40798115 7.0262058 6 5 C3.69 4.67 1.38 4.34 -1 4 C-0.67 2.68 -0.34 1.36 0 0 Z " fill="#BFD2C9" transform="translate(366,254)"/>
<path d="M0 0 C0.66 0 1.32 0 2 0 C1.125 7.875 1.125 7.875 0 9 C-0.36760731 11.32817964 -0.70241581 13.6618385 -1 16 C-1.66 16 -2.32 16 -3 16 C-2.979375 17.299375 -2.95875 18.59875 -2.9375 19.9375 C-2.9375 31.875 -2.9375 31.875 -5 36 C-5.26365764 39.22614424 -5.4443034 42.44547376 -5.60546875 45.67773438 C-5.89920831 50.89920831 -5.89920831 50.89920831 -7 52 C-7.10003289 54.13353174 -7.13081048 56.27037542 -7.1328125 58.40625 C-7.13410156 59.70691406 -7.13539062 61.00757813 -7.13671875 62.34765625 C-7.13462402 63.02844238 -7.1325293 63.70922852 -7.13037109 64.41064453 C-7.1250224 66.49128515 -7.1303168 68.57170989 -7.13671875 70.65234375 C-7.13542969 71.95300781 -7.13414063 73.25367188 -7.1328125 74.59375 C-7.13168457 75.79708984 -7.13055664 77.00042969 -7.12939453 78.24023438 C-7.31455977 80.90984482 -7.31455977 80.90984482 -6 82 C-5.84285346 83.63256758 -5.74914586 85.27135338 -5.68359375 86.91015625 C-5.62075195 88.39418945 -5.62075195 88.39418945 -5.55664062 89.90820312 C-5.51732422 90.94912109 -5.47800781 91.99003906 -5.4375 93.0625 C-5.39431641 94.10728516 -5.35113281 95.15207031 -5.30664062 96.22851562 C-5.20018775 98.81886884 -5.0981724 101.40932186 -5 104 C-5.66 104 -6.32 104 -7 104 C-7.06058594 103.08476562 -7.12117188 102.16953125 -7.18359375 101.2265625 C-7.26738281 100.03804688 -7.35117187 98.84953125 -7.4375 97.625 C-7.51871094 96.44164062 -7.59992187 95.25828125 -7.68359375 94.0390625 C-7.81084936 91.08481099 -7.81084936 91.08481099 -9 89 C-9.09003966 87.42708792 -9.11756509 85.85038425 -9.11352539 84.27490234 C-9.11344986 83.29403656 -9.11337433 82.31317078 -9.11329651 81.30258179 C-9.10813522 80.24108917 -9.10297394 79.17959656 -9.09765625 78.0859375 C-9.0962413 77.00116119 -9.09482635 75.91638489 -9.09336853 74.79873657 C-9.08775802 71.32413 -9.07520372 67.84958719 -9.0625 64.375 C-9.05748635 62.02343843 -9.05292321 59.67187585 -9.04882812 57.3203125 C-9.03778518 51.54685314 -9.02103679 45.77343112 -9 40 C-8.34 40 -7.68 40 -7 40 C-7 37.03 -7 34.06 -7 31 C-6.34 31 -5.68 31 -5 31 C-5.01160156 30.13117188 -5.02320313 29.26234375 -5.03515625 28.3671875 C-5.04417969 27.21476562 -5.05320312 26.06234375 -5.0625 24.875 C-5.07410156 23.73804688 -5.08570313 22.60109375 -5.09765625 21.4296875 C-5.005327 18.1870844 -4.61389906 15.18067388 -4 12 C-3.34 12 -2.68 12 -2 12 C-2 9.69 -2 7.38 -2 5 C-1.34 5 -0.68 5 0 5 C0 3.35 0 1.7 0 0 Z " fill="#9DBAAC" transform="translate(28,185)"/>
<path d="M0 0 C2.3125 0.1875 2.3125 0.1875 5 1 C8 5.03448276 8 5.03448276 8 8 C8.99 8 9.98 8 11 8 C11.33 7.34 11.66 6.68 12 6 C12.99 6 13.98 6 15 6 C15 5.01 15 4.02 15 3 C15.66 3 16.32 3 17 3 C17 2.01 17 1.02 17 0 C18.32 0 19.64 0 21 0 C19.84926424 4.51442489 18.47989332 8.07350224 16 12 C15.32033324 13.66140763 14.65061095 15.32700041 14 17 C13.67 17.33 13.34 17.66 13 18 C10.66055264 17.71269945 8.3260857 17.38063221 6 17 C6 16.01 6 15.02 6 14 C5.34 14 4.68 14 4 14 C3.32968281 12.0429132 2.66385317 10.08428887 2 8.125 C1.62875 7.03445313 1.2575 5.94390625 0.875 4.8203125 C0 2 0 2 0 0 Z " fill="#E7EEEB" transform="translate(226,285)"/>
<path d="M0 0 C5.28 0 10.56 0 16 0 C16 0.99 16 1.98 16 3 C11.71 3 7.42 3 3 3 C3 4.32 3 5.64 3 7 C6.63 7 10.26 7 14 7 C14 7.99 14 8.98 14 10 C10.37 10 6.74 10 3 10 C3 11.65 3 13.3 3 15 C7.29 15 11.58 15 16 15 C16 15.99 16 16.98 16 18 C10.72 18 5.44 18 0 18 C0 12.06 0 6.12 0 0 Z " fill="#EBF2EF" transform="translate(332,285)"/>
<path d="M0 0 C0.66 0 1.32 0 2 0 C2 1.98 2 3.96 2 6 C2.66 6 3.32 6 4 6 C4.103125 6.99 4.20625 7.98 4.3125 9 C4.79946177 12.40196906 5.83910225 15.37900563 7.1171875 18.57421875 C8.23039543 21.6330777 9.07388725 24.73675368 9.9375 27.875 C11.78859661 34.4810127 14.04762283 40.76292614 16.91796875 46.9921875 C18.51758794 50.49182385 19.3512059 53.13673515 19 57 C19.66 57 20.32 57 21 57 C22.0076952 58.7664657 23.00591714 60.53833823 24 62.3125 C24.556875 63.29863281 25.11375 64.28476562 25.6875 65.30078125 C27 68 27 68 27 71 C26.34 71 25.68 71 25 71 C25 70.34 25 69.68 25 69 C24.34 69 23.68 69 23 69 C22.67 66.36 22.34 63.72 22 61 C21.34 61 20.68 61 20 61 C20 60.34 20 59.68 20 59 C19.34 59 18.68 59 18 59 C17.67 56.36 17.34 53.72 17 51 C16.34 51 15.68 51 15 51 C15 49.68 15 48.36 15 47 C14.34 47 13.68 47 13 47 C12.67 44.36 12.34 41.72 12 39 C11.34 39 10.68 39 10 39 C10 37.35 10 35.7 10 34 C9.34 34 8.68 34 8 34 C8 32.35 8 30.7 8 29 C7.34 29 6.68 29 6 29 C4.6728739 25.0186217 4.93084087 21.14954773 5 17 C4.34 17 3.68 17 3 17 C3 14.69 3 12.38 3 10 C2.34 10 1.68 10 1 10 C0.67 6.7 0.34 3.4 0 0 Z " fill="#88B5A4" transform="translate(23,295)"/>
<path d="M0 0 C6.93 0 13.86 0 21 0 C21 1.32 21 2.64 21 4 C18.36 4 15.72 4 13 4 C13 8.95 13 13.9 13 19 C11.35 19 9.7 19 8 19 C8 14.05 8 9.1 8 4 C5.36 4 2.72 4 0 4 C0 2.68 0 1.36 0 0 Z " fill="#D3E0DA" transform="translate(259,254)"/>
<path d="M0 0 C1.98 0 3.96 0 6 0 C5.37344168 2.92393881 4.5838192 5.44829129 3 8 C2.01 8.33 1.02 8.66 0 9 C-0.66 12.3 -1.32 15.6 -2 19 C-3.32 19 -4.64 19 -6 19 C-6.00257813 18.43152344 -6.00515625 17.86304688 -6.0078125 17.27734375 C-6.29924751 11.45835804 -7.59103525 8.52233433 -11.72265625 4.41015625 C-13 3 -13 3 -13 1 C-11.02 1 -9.04 1 -7 1 C-6.34 2.65 -5.68 4.3 -5 6 C-4.01 5.67 -3.02 5.34 -2 5 C-0.78130071 2.49552484 -0.78130071 2.49552484 0 0 Z " fill="#E9F0ED" transform="translate(368,284)"/>
<path d="M0 0 C2.475 0.495 2.475 0.495 5 1 C5 5.95 5 10.9 5 16 C8.96 16 12.92 16 17 16 C17 16.99 17 17.98 17 19 C11.39 19 5.78 19 0 19 C0 12.73 0 6.46 0 0 Z " fill="#DBE7E2" transform="translate(283,284)"/>
<path d="M0 0 C0.495 0.99 0.495 0.99 1 2 C0.67 2.99 0.34 3.98 0 5 C-0.66 5 -1.32 5 -2 5 C-2.33 6.65 -2.66 8.3 -3 10 C-3.66 10 -4.32 10 -5 10 C-5 10.66 -5 11.32 -5 12 C-5.66 12 -6.32 12 -7 12 C-7.33 13.65 -7.66 15.3 -8 17 C-8.66 17 -9.32 17 -10 17 C-10 17.66 -10 18.32 -10 19 C-11.4609375 20.5078125 -11.4609375 20.5078125 -13.375 22.125 C-14.00148438 22.66382813 -14.62796875 23.20265625 -15.2734375 23.7578125 C-17 25 -17 25 -19 25 C-19.33 26.32 -19.66 27.64 -20 29 C-20.66 29 -21.32 29 -22 29 C-22 29.66 -22 30.32 -22 31 C-23.375 32.625 -23.375 32.625 -25 34 C-25.66 34 -26.32 34 -27 34 C-27 34.66 -27 35.32 -27 36 C-28.375 37.625 -28.375 37.625 -30 39 C-30.66 39 -31.32 39 -32 39 C-32 39.66 -32 40.32 -32 41 C-33.98 41.495 -33.98 41.495 -36 42 C-36 42.66 -36 43.32 -36 44 C-37.98 44.495 -37.98 44.495 -40 45 C-40 44.34 -40 43.68 -40 43 C-38.3125 41.5546875 -38.3125 41.5546875 -36 39.875 C-28.38929275 34.0984851 -22.41743486 27.51628833 -16.6640625 19.90625 C-16.11492187 19.2771875 -15.56578125 18.648125 -15 18 C-14.34 18 -13.68 18 -13 18 C-13 17.34 -13 16.68 -13 16 C-12.34 16 -11.68 16 -11 16 C-10.7525 15.46375 -10.505 14.9275 -10.25 14.375 C-8.69347463 11.4176018 -6.96564327 8.70275949 -5 6 C-4.34 6 -3.68 6 -3 6 C-3 5.01 -3 4.02 -3 3 C-2.34 3 -1.68 3 -1 3 C-0.67 2.01 -0.34 1.02 0 0 Z " fill="#83BCAB" transform="translate(447,386)"/>
<path d="M0 0 C1.32 0 2.64 0 4 0 C4 4.95 4 9.9 4 15 C7.96 15 11.92 15 16 15 C16 15.99 16 16.98 16 18 C10.72 18 5.44 18 0 18 C0 12.06 0 6.12 0 0 Z " fill="#DEE8E4" transform="translate(307,285)"/>
<path d="M0 0 C4.69942991 1.29354733 7.64975822 3.05934494 11.3125 6.25 C15.50359746 9.81530346 19.73312756 12.92877018 24.41796875 15.80859375 C24.94003906 16.20175781 25.46210937 16.59492188 26 17 C26 17.66 26 18.32 26 19 C26.88171875 19.17208984 26.88171875 19.17208984 27.78125 19.34765625 C30.15033552 20.04420076 31.55026956 20.94418373 33.5 22.4375 C35.91771753 24.23648982 38.22718762 25.77996255 41 27 C37.98968256 27.93423645 37.13349732 28.04449911 34 27 C34 26.34 34 25.68 34 25 C33.34 25 32.68 25 32 25 C32 24.34 32 23.68 32 23 C30.35 22.67 28.7 22.34 27 22 C27 21.34 27 20.68 27 20 C26.01 20 25.02 20 24 20 C24 19.34 24 18.68 24 18 C22.35 17.67 20.7 17.34 19 17 C19 16.34 19 15.68 19 15 C18.34 15 17.68 15 17 15 C17 14.34 17 13.68 17 13 C15.35 12.67 13.7 12.34 12 12 C12 11.34 12 10.68 12 10 C11.34 10 10.68 10 10 10 C10 9.34 10 8.68 10 8 C8.35 7.67 6.7 7.34 5 7 C5 5.68 5 4.36 5 3 C3.35 2.67 1.7 2.34 0 2 C0 1.34 0 0.68 0 0 Z " fill="#8FC7B7" transform="translate(97,427)"/>
<path d="M0 0 C0.66 0 1.32 0 2 0 C1.67 1.65 1.34 3.3 1 5 C3.97 5 6.94 5 10 5 C10 4.34 10 3.68 10 3 C10.66 3 11.32 3 12 3 C14 6 14 6 14 9 C14.66 9 15.32 9 16 9 C16 9.66 16 10.32 16 11 C12.125 10.125 12.125 10.125 11 9 C9.14712498 8.92773498 7.29166122 8.9161878 5.4375 8.9375 C4.42558594 8.94652344 3.41367187 8.95554687 2.37109375 8.96484375 C1.58863281 8.97644531 0.80617188 8.98804688 0 9 C-0.33 9.66 -0.66 10.32 -1 11 C-2.32 11 -3.64 11 -5 11 C-4.32902328 6.80639551 -2.1441606 3.59665648 0 0 Z " fill="#EBF2EF" transform="translate(260,292)"/>
<path d="M0 0 C0.66 0 1.32 0 2 0 C1.125 7.875 1.125 7.875 0 9 C-0.36760731 11.32817964 -0.70241581 13.6618385 -1 16 C-1.66 16 -2.32 16 -3 16 C-2.979375 17.299375 -2.95875 18.59875 -2.9375 19.9375 C-2.9375 31.875 -2.9375 31.875 -5 36 C-5.2307231 39.22646114 -5.39522303 42.44576922 -5.51757812 45.67773438 C-5.60903076 47.4567469 -5.79731996 49.23020624 -6 51 C-6.99 51.495 -6.99 51.495 -8 52 C-7.67 45.07 -7.34 38.14 -7 31 C-6.34 31 -5.68 31 -5 31 C-5.01160156 30.13117188 -5.02320313 29.26234375 -5.03515625 28.3671875 C-5.04417969 27.21476562 -5.05320312 26.06234375 -5.0625 24.875 C-5.07410156 23.73804688 -5.08570313 22.60109375 -5.09765625 21.4296875 C-5.005327 18.1870844 -4.61389906 15.18067388 -4 12 C-3.34 12 -2.68 12 -2 12 C-2 9.69 -2 7.38 -2 5 C-1.34 5 -0.68 5 0 5 C0 3.35 0 1.7 0 0 Z " fill="#779C88" transform="translate(28,185)"/>
<path d="M0 0 C1.65 0 3.3 0 5 0 C5.33 1.65 5.66 3.3 6 5 C5.34 5 4.68 5 4 5 C4 9.62 4 14.24 4 19 C2.68 19 1.36 19 0 19 C0 12.73 0 6.46 0 0 Z " fill="#E1EAE5" transform="translate(232,254)"/>
<path d="M0 0 C0.99 0.495 0.99 0.495 2 1 C1.01 1.495 1.01 1.495 0 2 C0 1.34 0 0.68 0 0 Z M0 3 C-6.27 9.27 -12.54 15.54 -19 22 C-20 19 -20 19 -19 16 C-17.5625 14.3125 -17.5625 14.3125 -16 13 C-15.34 13 -14.68 13 -14 13 C-14 12.34 -14 11.68 -14 11 C-12.625 9.375 -12.625 9.375 -11 8 C-10.34 8 -9.68 8 -9 8 C-9 7.34 -9 6.68 -9 6 C-8.34 6 -7.68 6 -7 6 C-6.67 5.01 -6.34 4.02 -6 3 C-3 2 -3 2 0 3 Z " fill="#547258" transform="translate(101,74)"/>
<path d="M0 0 C2.52845528 1.26422764 2.76422764 2.52845528 4 5 C4.66 5.33 5.32 5.66 6 6 C6 7.98 6 9.96 6 12 C4.00045254 12.04254356 1.99958364 12.04080783 0 12 C-0.33 11.67 -0.66 11.34 -1 11 C-2.68183948 10.76712992 -4.3712416 10.58735834 -6.0625 10.4375 C-6.98160156 10.35371094 -7.90070313 10.26992188 -8.84765625 10.18359375 C-9.55792969 10.12300781 -10.26820313 10.06242187 -11 10 C-11 10.66 -11 11.32 -11 12 C-12.98 12 -14.96 12 -17 12 C-16.67 9.36 -16.34 6.72 -16 4 C-15.34 4 -14.68 4 -14 4 C-13.67 3.01 -13.34 2.02 -13 1 C-12.67 1.66 -12.34 2.32 -12 3 C-12.77734375 4.9453125 -12.77734375 4.9453125 -13.9375 7.125 C-14.31777344 7.84945313 -14.69804687 8.57390625 -15.08984375 9.3203125 C-15.39019531 9.87460937 -15.69054687 10.42890625 -16 11 C-14.68 11 -13.36 11 -12 11 C-11.67 10.01 -11.34 9.02 -11 8 C0.70615034 7.44646925 0.70615034 7.44646925 5 11 C5 10.34 5 9.68 5 9 C4.34 9 3.68 9 3 9 C1.515 4.545 1.515 4.545 0 0 Z " fill="#7DA896" transform="translate(271,292)"/>
<path d="M0 0 C4.0002222 0.14009787 8.00011461 0.28811744 12 0.4375 C13.68802734 0.49647461 13.68802734 0.49647461 15.41015625 0.55664062 C21.33161908 0.78172547 27.13522862 1.14472084 33 2 C33 2.66 33 3.32 33 4 C33.99 4 34.98 4 36 4 C36.495 5.485 36.495 5.485 37 7 C35.37478005 6.70956145 33.74983921 6.41756108 32.125 6.125 C31.11179687 5.94324219 30.09859375 5.76148438 29.0546875 5.57421875 C26.43658528 5.0820691 23.84895419 4.51942072 21.25 3.9375 C15.55842714 2.75137254 9.81963894 2.57521035 4.02734375 2.34375 C3.02832031 2.2303125 2.02929688 2.116875 1 2 C0.67 1.34 0.34 0.68 0 0 Z " fill="#5C7159" transform="translate(272,17)"/>
<path d="M0 0 C0.99 0 1.98 0 3 0 C3 6.27 3 12.54 3 19 C1.68 18.67 0.36 18.34 -1 18 C-1.02684312 15.18743719 -1.04676188 12.37512759 -1.0625 9.5625 C-1.07087891 8.76005859 -1.07925781 7.95761719 -1.08789062 7.13085938 C-1.0965143 5.08704779 -1.0522815 3.04316098 -1 1 C-0.67 0.67 -0.34 0.34 0 0 Z " fill="#DFE8E4" transform="translate(221,254)"/>
<path d="M0 0 C0 0.66 0 1.32 0 2 C-0.66 2 -1.32 2 -2 2 C-2 2.66 -2 3.32 -2 4 C-3.65 4.33 -5.3 4.66 -7 5 C-7.33 6.32 -7.66 7.64 -8 9 C-9.98 9.33 -11.96 9.66 -14 10 C-14.33 11.32 -14.66 12.64 -15 14 C-16.65 14.33 -18.3 14.66 -20 15 C-20 15.66 -20 16.32 -20 17 C-21.98 17.33 -23.96 17.66 -26 18 C-23.10053755 14.9439938 -20.06162566 12.49316661 -16.625 10.0625 C-13.4881082 7.820668 -10.41733043 5.58401173 -7.5 3.0625 C-4.9563532 0.96399139 -3.32711288 0 0 0 Z " fill="#99CBBC" transform="translate(410,430)"/>
<path d="M0 0 C1.32 0.33 2.64 0.66 4 1 C4 1.66 4 2.32 4 3 C4.9075 3.12375 5.815 3.2475 6.75 3.375 C9.58970323 3.92109677 11.52590591 4.57263803 14 6 C14 6.66 14 7.32 14 8 C14.85851562 8.11214844 15.71703125 8.22429687 16.6015625 8.33984375 C20.1363256 9.02648164 23.07603124 10.13294687 26.375 11.5625 C27.43460938 12.01753906 28.49421875 12.47257812 29.5859375 12.94140625 C30.38257813 13.29074219 31.17921875 13.64007813 32 14 C32 14.33 32 14.66 32 15 C28.7 14.67 25.4 14.34 22 14 C22 13.34 22 12.68 22 12 C19.69 11.67 17.38 11.34 15 11 C15 10.34 15 9.68 15 9 C13.68 9 12.36 9 11 9 C11 8.34 11 7.68 11 7 C8.03 6.505 8.03 6.505 5 6 C5 5.34 5 4.68 5 4 C4.34 4 3.68 4 3 4 C3 3.34 3 2.68 3 2 C2.01 2 1.02 2 0 2 C0 1.34 0 0.68 0 0 Z " fill="#96CBBE" transform="translate(138,455)"/>
<path d="M0 0 C0.66 0 1.32 0 2 0 C2 1.98 2 3.96 2 6 C2.66 6 3.32 6 4 6 C4.103125 6.99 4.20625 7.98 4.3125 9 C4.79298013 12.44572896 5.93333837 15.37448144 7.234375 18.6015625 C8.82379493 23.5806637 9.33017807 28.83055078 10 34 C9.34 34 8.68 34 8 34 C8 32.35 8 30.7 8 29 C7.34 29 6.68 29 6 29 C4.6728739 25.0186217 4.93084087 21.14954773 5 17 C4.34 17 3.68 17 3 17 C3 14.69 3 12.38 3 10 C2.34 10 1.68 10 1 10 C0.67 6.7 0.34 3.4 0 0 Z " fill="#8FB7A6" transform="translate(23,295)"/>
<path d="M0 0 C2.75698837 1.37849419 3.54096417 3.52673053 4.98046875 6.15234375 C5.85347969 7.73446703 6.79535656 9.27825162 7.75 10.8125 C9 13 9 13 9 15 C9.66 15 10.32 15 11 15 C12.62677091 17.13770618 14.13979644 19.2675534 15.625 21.5 C16.04523438 22.12003906 16.46546875 22.74007813 16.8984375 23.37890625 C17.93837167 24.91517264 18.96997056 26.45707524 20 28 C19.34 28.33 18.68 28.66 18 29 C18 28.34 18 27.68 18 27 C17.01 26.67 16.02 26.34 15 26 C15 25.34 15 24.68 15 24 C14.34 24 13.68 24 13 24 C13 23.01 13 22.02 13 21 C12.34 21 11.68 21 11 21 C10.67 19.68 10.34 18.36 10 17 C9.34 17 8.68 17 8 17 C8 16.01 8 15.02 8 14 C7.34 14 6.68 14 6 14 C5.67 12.35 5.34 10.7 5 9 C4.34 9 3.68 9 3 9 C3 8.34 3 7.68 3 7 C2.34 7 1.68 7 1 7 C0.67 4.69 0.34 2.38 0 0 Z " fill="#85B9A7" transform="translate(52,369)"/>
<path d="M0 0 C0.66 0 1.32 0 2 0 C1.54775239 5.91492272 0.8417395 11.35199888 -1 17 C-1.66 17 -2.32 17 -3 17 C-3 19.31 -3 21.62 -3 24 C-3.66 24 -4.32 24 -5 24 C-5.33 28.29 -5.66 32.58 -6 37 C-6.66 37 -7.32 37 -8 37 C-7.34 31.72 -6.68 26.44 -6 21 C-5.34 21 -4.68 21 -4 21 C-4.020625 20.195625 -4.04125 19.39125 -4.0625 18.5625 C-4 16 -4 16 -3 15 C-2.835 13.845 -2.67 12.69 -2.5 11.5 C-2 8 -2 8 -1 7 C-0.63239269 4.67182036 -0.29758419 2.3381615 0 0 Z " fill="#94B9A9" transform="translate(487,290)"/>
<path d="M0 0 C2.3125 0.1875 2.3125 0.1875 5 1 C8 5.03448276 8 5.03448276 8 8 C7.34 8 6.68 8 6 8 C6 7.01 6 6.02 6 5 C5.34 5 4.68 5 4 5 C4.33 6.98 4.66 8.96 5 11 C5.66 11 6.32 11 7 11 C7.33 12.98 7.66 14.96 8 17 C7.34 17 6.68 17 6 17 C6 16.01 6 15.02 6 14 C5.34 14 4.68 14 4 14 C3.32968281 12.0429132 2.66385317 10.08428887 2 8.125 C1.62875 7.03445313 1.2575 5.94390625 0.875 4.8203125 C0 2 0 2 0 0 Z " fill="#D5E2DC" transform="translate(226,285)"/>
<path d="M0 0 C1.65 0 3.3 0 5 0 C3.68 0.33 2.36 0.66 1 1 C1 6.61 1 12.22 1 18 C1.66 18 2.32 18 3 18 C3 14.04 3 10.08 3 6 C4.32 6.33 5.64 6.66 7 7 C6.67 7.66 6.34 8.32 6 9 C5.77377919 10.70363822 5.59111527 12.41328701 5.4375 14.125 C5.35371094 15.03507812 5.26992188 15.94515625 5.18359375 16.8828125 C5.12300781 17.58148438 5.06242187 18.28015625 5 19 C3.35 19 1.7 19 0 19 C0 12.73 0 6.46 0 0 Z " fill="#BBD0C6" transform="translate(337,254)"/>
<path d="M0 0 C0.66 0 1.32 0 2 0 C2 5.61 2 11.22 2 17 C0.35 16.67 -1.3 16.34 -3 16 C-3.33 14.35 -3.66 12.7 -4 11 C-2.68 11 -1.36 11 0 11 C0 7.37 0 3.74 0 0 Z " fill="#F1F5F3" transform="translate(249,255)"/>
<path d="M0 0 C2.475 0.495 2.475 0.495 5 1 C5.33 2.65 5.66 4.3 6 6 C4.68 5.67 3.36 5.34 2 5 C2 8.96 2 12.92 2 17 C1.34 17 0.68 17 0 17 C0 11.39 0 5.78 0 0 Z " fill="#F2F6F4" transform="translate(338,255)"/>
<path d="M0 0 C0.66 0 1.32 0 2 0 C2 0.99 2 1.98 2 3 C2.66 3 3.32 3 4 3 C4.66 4.32 5.32 5.64 6 7 C7.32 7 8.64 7 10 7 C9.67 8.98 9.34 10.96 9 13 C7.35 13 5.7 13 4 13 C3.67 10.69 3.34 8.38 3 6 C2.34 6 1.68 6 1 6 C0.67 4.02 0.34 2.04 0 0 Z " fill="#F3F7F5" transform="translate(230,290)"/>
<path d="M0 0 C0.33 0.66 0.66 1.32 1 2 C0.67 2.99 0.34 3.98 0 5 C-0.66 5 -1.32 5 -2 5 C-2.33 6.65 -2.66 8.3 -3 10 C-3.66 10 -4.32 10 -5 10 C-5 10.66 -5 11.32 -5 12 C-5.66 12 -6.32 12 -7 12 C-7.33 13.65 -7.66 15.3 -8 17 C-8.66 17 -9.32 17 -10 17 C-10 17.66 -10 18.32 -10 19 C-10.66 19 -11.32 19 -12 19 C-10.65846062 13.99971686 -8.51629997 9.80932497 -5 6 C-4.34 6 -3.68 6 -3 6 C-3 5.01 -3 4.02 -3 3 C-2.34 3 -1.68 3 -1 3 C-0.67 2.01 -0.34 1.02 0 0 Z " fill="#93C2B3" transform="translate(447,386)"/>
<path d="M0 0 C1.65322266 0.01740234 1.65322266 0.01740234 3.33984375 0.03515625 C4.99693359 0.04869141 4.99693359 0.04869141 6.6875 0.0625 C7.54214844 0.07410156 8.39679688 0.08570313 9.27734375 0.09765625 C9.27734375 0.75765625 9.27734375 1.41765625 9.27734375 2.09765625 C5.64734375 2.42765625 2.01734375 2.75765625 -1.72265625 3.09765625 C-1.72265625 9.03765625 -1.72265625 14.97765625 -1.72265625 21.09765625 C-2.38265625 21.09765625 -3.04265625 21.09765625 -3.72265625 21.09765625 C-3.75153771 17.78517438 -3.76941424 14.47272458 -3.78515625 11.16015625 C-3.79353516 10.21462891 -3.80191406 9.26910156 -3.81054688 8.29492188 C-3.81376953 7.39580078 -3.81699219 6.49667969 -3.8203125 5.5703125 C-3.82554932 4.73765869 -3.83078613 3.90500488 -3.83618164 3.04711914 C-3.6555465 -0.05475523 -3.13427484 0.11242019 0 0 Z " fill="#739C88" transform="translate(313.72265625,251.90234375)"/>
<path d="M0 0 C0.33 0 0.66 0 1 0 C0.67149778 7.39130005 -2.75453345 14.75453345 -8 20 C-10.625 20.125 -10.625 20.125 -13 20 C-13 19.34 -13 18.68 -13 18 C-11.6078125 17.7525 -11.6078125 17.7525 -10.1875 17.5 C-6.96305205 16.36784961 -6.96305205 16.36784961 -6.00390625 14.15625 C-5.50960058 12.74248456 -5.0534696 11.31466321 -4.640625 9.875 C-4 8 -4 8 -2 6 C-1.28591666 4.01643517 -0.61382258 2.01684563 0 0 Z " fill="#7BA795" transform="translate(247,285)"/>
<path d="M0 0 C0.66 0 1.32 0 2 0 C2 5.61 2 11.22 2 17 C1.01 17 0.02 17 -1 17 C-1 16.34 -1 15.68 -1 15 C-1.66 15 -2.32 15 -3 15 C-3 14.01 -3 13.02 -3 12 C-2.01 12 -1.02 12 0 12 C0 8.04 0 4.08 0 0 Z " fill="#FAFBFB" transform="translate(354,255)"/>
<path d="M0 0 C0.66 0 1.32 0 2 0 C1.125 7.875 1.125 7.875 0 9 C-0.36760731 11.32817964 -0.70241581 13.6618385 -1 16 C-1.66 16 -2.32 16 -3 16 C-3 17.98 -3 19.96 -3 22 C-3.66 22 -4.32 22 -5 22 C-4.67 18.7 -4.34 15.4 -4 12 C-3.34 12 -2.68 12 -2 12 C-2 9.69 -2 7.38 -2 5 C-1.34 5 -0.68 5 0 5 C0 3.35 0 1.7 0 0 Z " fill="#8FAB9A" transform="translate(28,185)"/>
<path d="M0 0 C0.66 0.33 1.32 0.66 2 1 C1.67 1.99 1.34 2.98 1 4 C0.34 4 -0.32 4 -1 4 C-1 4.66 -1 5.32 -1 6 C-1.66 6 -2.32 6 -3 6 C-3 6.99 -3 7.98 -3 9 C-3.66 9 -4.32 9 -5 9 C-5.33 10.65 -5.66 12.3 -6 14 C-6.66 14 -7.32 14 -8 14 C-8 14.99 -8 15.98 -8 17 C-8.66 17 -9.32 17 -10 17 C-10 17.66 -10 18.32 -10 19 C-10.66 19 -11.32 19 -12 19 C-11.67 17.68 -11.34 16.36 -11 15 C-10.34 15 -9.68 15 -9 15 C-8.88398438 14.42378906 -8.76796875 13.84757812 -8.6484375 13.25390625 C-7.94971541 10.82521561 -6.97837683 9.06599266 -5.625 6.9375 C-5.20476562 6.26589844 -4.78453125 5.59429687 -4.3515625 4.90234375 C-3.04048427 3.05698219 -1.64747408 1.54631339 0 0 Z " fill="#88BAA9" transform="translate(460,367)"/>
<path d="M0 0 C4.62 0 9.24 0 14 0 C14 0.99 14 1.98 14 3 C9.38 3 4.76 3 0 3 C0 2.01 0 1.02 0 0 Z " fill="#F5F8F7" transform="translate(309,300)"/>
<path d="M0 0 C1.98 0 3.96 0 6 0 C5.37240135 2.92879371 4.41377341 5.36095629 3 8 C2.01 8 1.02 8 0 8 C0 7.34 0 6.68 0 6 C-0.66 5.67 -1.32 5.34 -2 5 C-1.34 3.35 -0.68 1.7 0 0 Z " fill="#C7D8D1" transform="translate(368,284)"/>
<path d="M0 0 C5.81633105 1.30867449 10.11106904 4.56819796 14 9 C14 9.99 14 10.98 14 12 C13.34 12 12.68 12 12 12 C12 11.34 12 10.68 12 10 C11.34 10 10.68 10 10 10 C10 9.34 10 8.68 10 8 C8.35 7.67 6.7 7.34 5 7 C5 5.68 5 4.36 5 3 C3.35 2.67 1.7 2.34 0 2 C0 1.34 0 0.68 0 0 Z " fill="#A3CFC2" transform="translate(97,427)"/>
<path d="M0 0 C4.29 0 8.58 0 13 0 C12 5 12 5 9.9375 6.8125 C9.298125 7.204375 8.65875 7.59625 8 8 C8.50603992 5.83125748 8.99983813 4.00032373 10 2 C6.7 2 3.4 2 0 2 C0 1.34 0 0.68 0 0 Z " fill="#F7F9F8" transform="translate(366,255)"/>
<path d="M0 0 C6.27 0 12.54 0 19 0 C19 0.66 19 1.32 19 2 C8.605 2.495 8.605 2.495 -2 3 C-1.34 2.67 -0.68 2.34 0 2 C0 1.34 0 0.68 0 0 Z " fill="#9BD1C4" transform="translate(274,484)"/>
<path d="M0 0 C1.19799449 4.14659373 0.8896192 7.99369047 0.5625 12.25 C0.48418945 13.36761719 0.48418945 13.36761719 0.40429688 14.5078125 C0.2751783 16.33894861 0.13834886 18.16953813 0 20 C-0.66 20 -1.32 20 -2 20 C-2 22.31 -2 24.62 -2 27 C-2.66 27.33 -3.32 27.66 -4 28 C-3.85962479 26.18706911 -3.71255111 24.3746557 -3.5625 22.5625 C-3.48128906 21.55316406 -3.40007812 20.54382813 -3.31640625 19.50390625 C-3 17 -3 17 -2 16 C-1.78982984 13.69104731 -1.63160059 11.37726031 -1.5 9.0625 C-1.11021814 2.22043628 -1.11021814 2.22043628 0 0 Z " fill="#669881" transform="translate(489,270)"/>
<path d="M0 0 C0.66 0 1.32 0 2 0 C2 1.98 2 3.96 2 6 C2.66 6 3.32 6 4 6 C4.33 10.29 4.66 14.58 5 19 C4.34 19 3.68 19 3 19 C2.87625 17.824375 2.7525 16.64875 2.625 15.4375 C2.14219837 11.48412433 1.10389833 7.82684755 0 4 C0 2.68 0 1.36 0 0 Z " fill="#9DB6A8" transform="translate(484,195)"/>
<path d="M0 0 C0.93779297 0.00322266 1.87558594 0.00644531 2.84179688 0.00976562 C4.30649414 0.02233398 4.30649414 0.02233398 5.80078125 0.03515625 C6.78884766 0.03966797 7.77691406 0.04417969 8.79492188 0.04882812 C11.23443599 0.06061322 13.67382814 0.07706614 16.11328125 0.09765625 C16.11328125 0.42765625 16.11328125 0.75765625 16.11328125 1.09765625 C14.28990234 1.18853516 14.28990234 1.18853516 12.4296875 1.28125 C10.84503897 1.36563957 9.26040423 1.45028835 7.67578125 1.53515625 C6.87333984 1.57447266 6.07089844 1.61378906 5.24414062 1.65429688 C1.36088564 1.50308585 1.36088564 1.50308585 -1.88671875 3.09765625 C-3.40599913 3.16945589 -4.92839357 3.18157632 -6.44921875 3.16015625 C-7.27550781 3.15113281 -8.10179687 3.14210938 -8.953125 3.1328125 C-9.59121094 3.12121094 -10.22929687 3.10960937 -10.88671875 3.09765625 C-7.04905308 0.53921247 -4.50374143 -0.0272954 0 0 Z " fill="#4F664B" transform="translate(239.88671875,15.90234375)"/>
<path d="M0 0 C0.33 0.99 0.66 1.98 1 3 C4.3 3 7.6 3 11 3 C11 3.66 11 4.32 11 5 C6.05 5 1.1 5 -4 5 C-4 4.34 -4 3.68 -4 3 C-2 1.375 -2 1.375 0 0 Z " fill="#FBFCFC" transform="translate(369,267)"/>
<path d="M0 0 C0.5625 1.9375 0.5625 1.9375 1 4 C0.67 4.33 0.34 4.66 0 5 C0.66 5.66 1.32 6.32 2 7 C-1.96 7 -5.92 7 -10 7 C-10 6.01 -10 5.02 -10 4 C-5.545 3.505 -5.545 3.505 -1 3 C-0.67 2.01 -0.34 1.02 0 0 Z " fill="#5B8E76" transform="translate(302,262)"/>
<path d="M0 0 C0.66 0.33 1.32 0.66 2 1 C0.59928507 6.29158974 -2.85487245 8.77478044 -7 12 C-7.33 11.34 -7.66 10.68 -8 10 C-7.67 9.01 -7.34 8.02 -7 7 C-5.68 7 -4.36 7 -3 7 C-2.67 5.35 -2.34 3.7 -2 2 C-1.34 2 -0.68 2 0 2 C0 1.34 0 0.68 0 0 Z " fill="#718B75" transform="translate(80,92)"/>
<path d="M0 0 C2.31 0.33 4.62 0.66 7 1 C7 1.66 7 2.32 7 3 C8.32 3 9.64 3 11 3 C11 3.66 11 4.32 11 5 C13.97 5.495 13.97 5.495 17 6 C16.67 6.66 16.34 7.32 16 8 C10.53262809 6.25192871 5.24175152 4.34205919 0 2 C0 1.34 0 0.68 0 0 Z " fill="#798B77" transform="translate(337,30)"/>
<path d="M0 0 C0.33 0.66 0.66 1.32 1 2 C0.34 2 -0.32 2 -1 2 C-1.33 3.32 -1.66 4.64 -2 6 C-3.65 6.33 -5.3 6.66 -7 7 C-7 7.66 -7 8.32 -7 9 C-8.98 9.33 -10.96 9.66 -13 10 C-9.28249221 5.79759989 -4.68339021 3.00217321 0 0 Z " fill="#8BC4B5" transform="translate(397,438)"/>
<path d="M0 0 C0.66 0 1.32 0 2 0 C2 1.65 2 3.3 2 5 C2.66 5.33 3.32 5.66 4 6 C3.34 7.65 2.68 9.3 2 11 C1.67 9.68 1.34 8.36 1 7 C-0.32 6.67 -1.64 6.34 -3 6 C-3.33 4.68 -3.66 3.36 -4 2 C-3.01 2 -2.02 2 -1 2 C-0.67 1.34 -0.34 0.68 0 0 Z " fill="#B2CBC0" transform="translate(238,291)"/>
<path d="M0 0 C2.0625 0.4375 2.0625 0.4375 4 1 C3.01 1 2.02 1 1 1 C1 1.66 1 2.32 1 3 C0.01 3 -0.98 3 -2 3 C-2 3.66 -2 4.32 -2 5 C-5.96 5.66 -9.92 6.32 -14 7 C-13 5 -13 5 -10.3125 3.96484375 C-9.219375 3.62582031 -8.12625 3.28679687 -7 2.9375 C-3.20553957 2.00261214 -3.20553957 2.00261214 0 0 Z " fill="#85C6B5" transform="translate(348,466)"/>
<path d="M0 0 C0 0.66 0 1.32 0 2 C-1.65 2.33 -3.3 2.66 -5 3 C-5 3.66 -5 4.32 -5 5 C-6.32 5 -7.64 5 -9 5 C-9.33 6.32 -9.66 7.64 -10 9 C-11.65 9.33 -13.3 9.66 -15 10 C-15 9.34 -15 8.68 -15 8 C-14.01 8 -13.02 8 -12 8 C-11.7525 7.401875 -11.505 6.80375 -11.25 6.1875 C-9.43675663 3.01432411 -7.34549199 1.43530623 -3.875 0.3125 C-2 0 -2 0 0 0 Z " fill="#A7D3C8" transform="translate(388,447)"/>
<path d="M0 0 C3.63 0 7.26 0 11 0 C11 0.99 11 1.98 11 3 C7.37 3 3.74 3 0 3 C0 2.01 0 1.02 0 0 Z " fill="#619780" transform="translate(336,296)"/>
<path d="M0 0 C2.64 0 5.28 0 8 0 C8 1.32 8 2.64 8 4 C5.36 4 2.72 4 0 4 C0 2.68 0 1.36 0 0 Z " fill="#66957F" transform="translate(315,258)"/>
<path d="M0 0 C0.99 0.33 1.98 0.66 3 1 C2.85962479 2.81293089 2.71255111 4.6253443 2.5625 6.4375 C2.48128906 7.44683594 2.40007812 8.45617187 2.31640625 9.49609375 C2 12 2 12 1 13 C-0.66617115 13.04063832 -2.33388095 13.042721 -4 13 C-2.68 12.67 -1.36 12.34 0 12 C0 8.04 0 4.08 0 0 Z " fill="#77A18D" transform="translate(236,261)"/>
<path d="M0 0 C2.31 0 4.62 0 7 0 C6.67 0.99 6.34 1.98 6 3 C-0.435 3.495 -0.435 3.495 -7 4 C-7 3.34 -7 2.68 -7 2 C-4.69 2 -2.38 2 0 2 C0 1.34 0 0.68 0 0 Z " fill="#8E9D8C" transform="translate(205,19)"/>
<path d="M0 0 C3 2 3 2 3.6875 4.625 C3.790625 5.40875 3.89375 6.1925 4 7 C2.02 7 0.04 7 -2 7 C-1.125 1.125 -1.125 1.125 0 0 Z " fill="#86AE9D" transform="translate(265,290)"/>
<path d="M0 0 C2.52845528 1.26422764 2.76422764 2.52845528 4 5 C4.66 5.33 5.32 5.66 6 6 C6 7.98 6 9.96 6 12 C4.02 12 2.04 12 0 12 C0.33 11.01 0.66 10.02 1 9 C2.32 9.66 3.64 10.32 5 11 C5 10.34 5 9.68 5 9 C4.34 9 3.68 9 3 9 C2.01 6.03 1.02 3.06 0 0 Z " fill="#9ABCAD" transform="translate(271,292)"/>
<path d="M0 0 C0.66 0 1.32 0 2 0 C4 3 4 3 4 6 C4.66 6 5.32 6 6 6 C6 6.66 6 7.32 6 8 C4.0625 7.6875 4.0625 7.6875 2 7 C1.67 6.01 1.34 5.02 1 4 C0.01 4 -0.98 4 -2 4 C-2 3.34 -2 2.68 -2 2 C-1.34 2 -0.68 2 0 2 C0 1.34 0 0.68 0 0 Z " fill="#F4F8F6" transform="translate(270,295)"/>
<path d="M0 0 C0.33 1.32 0.66 2.64 1 4 C0.34 4 -0.32 4 -1 4 C-1 5.32 -1 6.64 -1 8 C-1.66 8 -2.32 8 -3 8 C-3 7.34 -3 6.68 -3 6 C-3.66 6 -4.32 6 -5 6 C-5 5.34 -5 4.68 -5 4 C-6.32 3.67 -7.64 3.34 -9 3 C-6.36 3 -3.72 3 -1 3 C-0.67 2.01 -0.34 1.02 0 0 Z " fill="#FAFBFB" transform="translate(325,260)"/>
<path d="M0 0 C0.99 0 1.98 0 3 0 C3 0.66 3 1.32 3 2 C6.3 2 9.6 2 13 2 C13 2.33 13 2.66 13 3 C11.96939453 3.03867187 11.96939453 3.03867187 10.91796875 3.078125 C10.01691406 3.13484375 9.11585938 3.1915625 8.1875 3.25 C7.29417969 3.29640625 6.40085937 3.3428125 5.48046875 3.390625 C2.83946485 3.79121416 2.83946485 3.79121416 1.17578125 6.046875 C0.78777344 6.69140625 0.39976562 7.3359375 0 8 C0 5.36 0 2.72 0 0 Z " fill="#F8FAF9" transform="translate(288,261)"/>
<path d="M0 0 C0 0.66 0 1.32 0 2 C-1.65 2 -3.3 2 -5 2 C-5 2.66 -5 3.32 -5 4 C-7.31 4.33 -9.62 4.66 -12 5 C-12 4.34 -12 3.68 -12 3 C-8.06769671 0.37846447 -4.67664739 0 0 0 Z " fill="#A4D4C7" transform="translate(339,472)"/>
<path d="M0 0 C2.22023926 2.22023926 2.99988963 3.98529101 4.1875 6.875 C4.55230469 7.73867188 4.91710938 8.60234375 5.29296875 9.4921875 C6.04664008 12.16543056 5.9388856 13.42852989 5 16 C5 15.01 5 14.02 5 13 C4.34 13 3.68 13 3 13 C3 12.01 3 11.02 3 10 C2.34 10 1.68 10 1 10 C0.67 6.7 0.34 3.4 0 0 Z " fill="#73A793" transform="translate(32,324)"/>
<path d="M0 0 C0.66 0 1.32 0 2 0 C2.06058594 0.71027344 2.12117188 1.42054688 2.18359375 2.15234375 C2.26738281 3.07144531 2.35117187 3.99054688 2.4375 4.9375 C2.51871094 5.85402344 2.59992187 6.77054687 2.68359375 7.71484375 C2.76044976 9.96159732 2.76044976 9.96159732 4 11 C4.04092937 13.33297433 4.04241723 15.66705225 4 18 C3.67 18 3.34 18 3 18 C3 16.35 3 14.7 3 13 C2.34 13 1.68 13 1 13 C0.67 8.71 0.34 4.42 0 0 Z " fill="#679A83" transform="translate(22,282)"/>
<path d="M0 0 C0 0.66 0 1.32 0 2 C-0.99 2 -1.98 2 -3 2 C-3 2.66 -3 3.32 -3 4 C-3.66 4 -4.32 4 -5 4 C-5 4.66 -5 5.32 -5 6 C-7.64 6.33 -10.28 6.66 -13 7 C-11.01388388 5.01388388 -9.55856751 4.08545288 -7 3 C-6.01 3 -5.02 3 -4 3 C-4 2.34 -4 1.68 -4 1 C-2 0 -2 0 0 0 Z " fill="#87C4B4" transform="translate(376,453)"/>
<path d="M0 0 C2.31 0.33 4.62 0.66 7 1 C7 1.66 7 2.32 7 3 C8.98 3 10.96 3 13 3 C13 3.66 13 4.32 13 5 C10.03 4.67 7.06 4.34 4 4 C4 3.34 4 2.68 4 2 C2.68 2 1.36 2 0 2 C0 1.34 0 0.68 0 0 Z " fill="#929F90" transform="translate(317,23)"/>
<path d="M0 0 C0 0.66 0 1.32 0 2 C-1.65 2 -3.3 2 -5 2 C-5 2.66 -5 3.32 -5 4 C-9.455 4.495 -9.455 4.495 -14 5 C-13 3 -13 3 -10.56640625 2.1484375 C-9.57511719 1.89320313 -8.58382813 1.63796875 -7.5625 1.375 C-6.07943359 0.98441406 -6.07943359 0.98441406 -4.56640625 0.5859375 C-2 0 -2 0 0 0 Z " fill="#86C7B6" transform="translate(327,475)"/>
<path d="M0 0 C1.43931117 0.45261358 2.87638999 0.91232979 4.3125 1.375 C5.11300781 1.63023437 5.91351563 1.88546875 6.73828125 2.1484375 C9 3 9 3 12 5 C8.7 4.67 5.4 4.34 2 4 C2 3.34 2 2.68 2 2 C1.34 2 0.68 2 0 2 C0 1.34 0 0.68 0 0 Z " fill="#8AC7B8" transform="translate(158,465)"/>
<path d="M0 0 C1.98 0 3.96 0 6 0 C6.33 1.65 6.66 3.3 7 5 C6.34 4.67 5.68 4.34 5 4 C5 3.34 5 2.68 5 2 C4.34 2 3.68 2 3 2 C3.33 3.32 3.66 4.64 4 6 C2.62437146 4.71034824 1.29233607 3.37310707 0 2 C0 1.34 0 0.68 0 0 Z " fill="#D0DFD8" transform="translate(355,285)"/>
<path d="M0 0 C1.24546405 2.49092811 0.7767578 3.41080733 0 6 C-0.66 6 -1.32 6 -2 6 C-2.28875 6.969375 -2.5775 7.93875 -2.875 8.9375 C-4 12 -4 12 -6 13 C-3.10933941 3.40546697 -3.10933941 3.40546697 0 0 Z " fill="#B6C8BD" transform="translate(289,188)"/>
<path d="M0 0 C-5.12325529 2.45489316 -9.33895411 3.50341703 -15 4 C-14 2 -14 2 -11.34765625 1.11328125 C-9.72150391 0.71689453 -9.72150391 0.71689453 -8.0625 0.3125 C-6.98097656 0.04050781 -5.89945313 -0.23148438 -4.78515625 -0.51171875 C-2 -1 -2 -1 0 0 Z " fill="#3B5639" transform="translate(198,25)"/>
<path d="M0 0 C2.0625 0.4375 2.0625 0.4375 4 1 C4 1.99 4 2.98 4 4 C2.68 3.67 1.36 3.34 0 3 C0.33 4.32 0.66 5.64 1 7 C0.34 6.67 -0.32 6.34 -1 6 C-1.042721 4.33388095 -1.04063832 2.66617115 -1 1 C-0.67 0.67 -0.34 0.34 0 0 Z " fill="#77A390" transform="translate(226,282)"/>
<path d="M0 0 C0.99 0 1.98 0 3 0 C4.4606285 2.64738916 5 3.89448334 5 7 C4.34 7 3.68 7 3 7 C3 6.34 3 5.68 3 5 C2.34 5 1.68 5 1 5 C0.67 3.35 0.34 1.7 0 0 Z " fill="#8FBCAC" transform="translate(45,359)"/>
<path d="M0 0 C1.45047396 2.90094791 0.45356803 4.55972596 -0.4375 7.625 C-0.72496094 8.62789062 -1.01242188 9.63078125 -1.30859375 10.6640625 C-1.53675781 11.43492187 -1.76492187 12.20578125 -2 13 C-2.33 13 -2.66 13 -3 13 C-3.27429625 7.60550707 -3.36055646 4.48074195 0 0 Z " fill="#ACBCB0" transform="translate(176,118)"/>
<path d="M0 0 C0.99 0.495 0.99 0.495 2 1 C2 1.66 2 2.32 2 3 C2.66 3 3.32 3 4 3 C4.33 4.98 4.66 6.96 5 9 C4.34 9 3.68 9 3 9 C3 8.01 3 7.02 3 6 C2.34 6 1.68 6 1 6 C0.67 4.02 0.34 2.04 0 0 Z " fill="#94B8A9" transform="translate(229,293)"/>
<path d="M0 0 C0.66 0 1.32 0 2 0 C2 0.66 2 1.32 2 2 C4.97 2.495 4.97 2.495 8 3 C8 3.33 8 3.66 8 4 C4.7 4 1.4 4 -2 4 C-1.34 2.68 -0.68 1.36 0 0 Z " fill="#6B9883" transform="translate(373,265)"/>
<path d="M0 0 C0.33 0.66 0.66 1.32 1 2 C0.22265625 3.9453125 0.22265625 3.9453125 -0.9375 6.125 C-1.31777344 6.84945313 -1.69804687 7.57390625 -2.08984375 8.3203125 C-2.39019531 8.87460937 -2.69054687 9.42890625 -3 10 C-3.93423645 6.98968256 -4.04449911 6.13349732 -3 3 C-2.34 3 -1.68 3 -1 3 C-0.67 2.01 -0.34 1.02 0 0 Z " fill="#94B8A8" transform="translate(258,293)"/>
<path d="M0 0 C0.66 0.33 1.32 0.66 2 1 C1.67 2.98 1.34 4.96 1 7 C0.01 7.33 -0.98 7.66 -2 8 C-2 6.35 -2 4.7 -2 3 C-1.34 3 -0.68 3 0 3 C0 2.01 0 1.02 0 0 Z " fill="#86A38F" transform="translate(33,170)"/>
<path d="M0 0 C2.31 0.33 4.62 0.66 7 1 C7.33 2.32 7.66 3.64 8 5 C5.33333333 3.66666667 2.66666667 2.33333333 0 1 C0 0.67 0 0.34 0 0 Z " fill="#516B52" transform="translate(381,54)"/>
</svg>
